<svg xmlns="http://www.w3.org/2000/svg" viewBox="-330 -330 660 660" role="img"><title>mTOR-NEXUS deterministic 3D-atlas hero projection</title><rect x="-330" y="-330" width="660" height="660" fill="#08130f"/><g fill="#8be7aa" fill-opacity="0.76" stroke="#dff9e8" stroke-width="0.35"><circle cx="313.874" cy="202.608" r="3.4"><title>14-3-3</title></circle><circle cx="-84.241" cy="-237.028" r="3.4"><title>ACACA</title></circle><circle cx="-130.764" cy="-296.280" r="3.4"><title>ACLY</title></circle><circle cx="181.684" cy="-19.380" r="3.4"><title>AKT1</title></circle><circle cx="314.885" cy="-53.711" r="3.4"><title>AKT1S1</title></circle><circle cx="314.712" cy="140.866" r="3.4"><title>AKT2</title></circle><circle cx="301.667" cy="51.660" r="3.4"><title>AKT3</title></circle><circle cx="-236.510" cy="284.302" r="3.4"><title>AMP</title></circle><circle cx="-273.109" cy="277.302" r="3.4"><title>AMPK</title></circle><circle cx="-175.419" cy="228.931" r="3.4"><title>ARGININE</title></circle><circle cx="-82.180" cy="-249.131" r="3.4"><title>ARL8B</title></circle><circle cx="-309.010" cy="175.898" r="3.4"><title>ATF4</title></circle><circle cx="-204.809" cy="68.458" r="3.4"><title>ATG101</title></circle><circle cx="-297.744" cy="-203.798" r="3.4"><title>ATG12</title></circle><circle cx="-280.700" cy="-217.894" r="3.4"><title>ATG13</title></circle><circle cx="-217.002" cy="-144.723" r="3.4"><title>ATG14</title></circle><circle cx="-252.321" cy="-237.702" r="3.4"><title>ATG5</title></circle><circle cx="-306.780" cy="-174.802" r="3.4"><title>ATG7</title></circle><circle cx="-288.244" cy="296.152" r="3.4"><title>ATP</title></circle><circle cx="206.738" cy="258.566" r="3.4"><title>ATP6V0D1</title></circle><circle cx="112.146" cy="294.160" r="3.4"><title>ATP6V1A</title></circle><circle cx="-275.029" cy="-137.897" r="3.4"><title>AUTOPHAGY</title></circle><circle cx="197.377" cy="96.184" r="3.4"><title>AZD8055</title></circle><circle cx="-209.020" cy="-174.903" r="3.4"><title>BECN1</title></circle><circle cx="-289.902" cy="187.510" r="3.4"><title>BNIP3</title></circle><circle cx="247.537" cy="-276.823" r="3.4"><title>BTRC</title></circle><circle cx="-220.399" cy="284.121" r="3.4"><title>CAB39</title></circle><circle cx="-204.728" cy="-282.120" r="3.4"><title>CAD</title></circle><circle cx="-241.692" cy="278.887" r="3.4"><title>CAMKK2</title></circle><circle cx="39.812" cy="213.869" r="3.4"><title>CASTOR1</title></circle><circle cx="145.298" cy="285.208" r="3.4"><title>CASTOR2</title></circle><circle cx="109.174" cy="-228.815" r="3.4"><title>CCND1</title></circle><circle cx="271.720" cy="-254.098" r="3.4"><title>CCNE1</title></circle><circle cx="156.860" cy="-303.301" r="3.4"><title>CDC42</title></circle><circle cx="182.335" cy="-150.780" r="3.4"><title>CDK1</title></circle><circle cx="273.931" cy="-283.010" r="3.4"><title>CDK4</title></circle><circle cx="53.254" cy="-215.395" r="3.4"><title>CDK6</title></circle><circle cx="257.771" cy="-286.887" r="3.4"><title>CTNNB1</title></circle><circle cx="182.439" cy="-89.762" r="3.4"><title>CUL1</title></circle><circle cx="209.184" cy="51.156" r="3.4"><title>DACTOLISIB</title></circle><circle cx="-290.502" cy="-201.395" r="3.4"><title>DAP</title></circle><circle cx="-280.479" cy="231.507" r="3.4"><title>DDIT4</title></circle><circle cx="174.115" cy="271.395" r="3.4"><title>DEPDC5</title></circle><circle cx="295.118" cy="95.687" r="3.4"><title>DEPTOR</title></circle><circle cx="-242.820" cy="-233.810" r="3.4"><title>DHODH</title></circle><circle cx="-306.774" cy="270.381" r="3.4"><title>DNA-DAMAGE</title></circle><circle cx="-214.391" cy="148.325" r="3.4"><title>EEF2</title></circle><circle cx="-302.415" cy="67.842" r="3.4"><title>EEF2K</title></circle><circle cx="214.035" cy="266.702" r="3.4"><title>EGFR</title></circle><circle cx="-310.301" cy="270.447" r="3.4"><title>EIF2AK1</title></circle><circle cx="-296.065" cy="262.541" r="3.4"><title>EIF2AK3</title></circle><circle cx="-231.158" cy="167.196" r="3.4"><title>EIF4A1</title></circle><circle cx="-293.458" cy="-10.284" r="3.4"><title>EIF4B</title></circle><circle cx="-284.256" cy="2.407" r="3.4"><title>EIF4E</title></circle><circle cx="-235.635" cy="-59.926" r="3.4"><title>EIF4EBP1</title></circle><circle cx="-239.969" cy="170.879" r="3.4"><title>EIF4EBP2</title></circle><circle cx="-217.262" cy="42.351" r="3.4"><title>EIF4EBP3</title></circle><circle cx="-232.210" cy="-101.905" r="3.4"><title>EIF4G1</title></circle><circle cx="-98.002" cy="-286.981" r="3.4"><title>ELOVL6</title></circle><circle cx="-269.922" cy="247.397" r="3.4"><title>ER-STRESS</title></circle><circle cx="-34.786" cy="-216.626" r="3.4"><title>ERBB2</title></circle><circle cx="-301.897" cy="277.301" r="3.4"><title>ERN1</title></circle><circle cx="283.616" cy="-290.873" r="3.4"><title>ESR1</title></circle><circle cx="289.923" cy="-23.034" r="3.4"><title>EVEROLIMUS</title></circle><circle cx="-190.631" cy="-282.647" r="3.4"><title>FASN</title></circle><circle cx="88.130" cy="-285.665" r="3.4"><title>FBXW11</title></circle><circle cx="72.193" cy="-303.304" r="3.4"><title>FGF2</title></circle><circle cx="179.311" cy="-280.287" r="3.4"><title>FGFR1</title></circle><circle cx="215.627" cy="141.662" r="3.4"><title>FKBP1A</title></circle><circle cx="-68.172" cy="249.761" r="3.4"><title>FLCN</title></circle><circle cx="-45.387" cy="301.502" r="3.4"><title>FNIP1</title></circle><circle cx="71.300" cy="225.590" r="3.4"><title>FNIP2</title></circle><circle cx="192.579" cy="-231.522" r="3.4"><title>FOXK1</title></circle><circle cx="193.922" cy="-219.803" r="3.4"><title>FOXK2</title></circle><circle cx="202.982" cy="-309.017" r="3.4"><title>FOXO1</title></circle><circle cx="58.424" cy="-296.595" r="3.4"><title>FOXO3</title></circle><circle cx="188.689" cy="-35.042" r="3.4"><title>FZD1</title></circle><circle cx="-7.380" cy="271.550" r="3.4"><title>GATOR1</title></circle><circle cx="53.432" cy="287.512" r="3.4"><title>GATOR2</title></circle><circle cx="204.322" cy="-38.222" r="3.4"><title>GDC-0349</title></circle><circle cx="285.500" cy="-180.273" r="3.4"><title>GEDATOLISIB</title></circle><circle cx="121.615" cy="-228.837" r="3.4"><title>GRB10</title></circle><circle cx="110.770" cy="-241.109" r="3.4"><title>GSK3B</title></circle><circle cx="-33.648" cy="-272.575" r="3.4"><title>HGF</title></circle><circle cx="-310.254" cy="216.785" r="3.4"><title>HIF1A</title></circle><circle cx="-194.725" cy="-299.528" r="3.4"><title>HMGCR</title></circle><circle cx="-185.091" cy="-231.111" r="3.4"><title>HRAS</title></circle><circle cx="-291.999" cy="153.258" r="3.4"><title>HYPOXIA</title></circle><circle cx="284.702" cy="219.276" r="3.4"><title>IGF1R</title></circle><circle cx="236.672" cy="-289.157" r="3.4"><title>IKBKB</title></circle><circle cx="-204.604" cy="12.864" r="3.4"><title>IKBKE</title></circle><circle cx="304.528" cy="204.543" r="3.4"><title>INSR</title></circle><circle cx="217.672" cy="28.420" r="3.4"><title>IRS1</title></circle><circle cx="296.264" cy="0.888" r="3.4"><title>IRS2</title></circle><circle cx="144.058" cy="227.106" r="3.4"><title>ITFG2</title></circle><circle cx="294.408" cy="-114.135" r="3.4"><title>JR-AB2-011</title></circle><circle cx="214.430" cy="-230.629" r="3.4"><title>KDR</title></circle><circle cx="-174.392" cy="306.579" r="3.4"><title>KICS2</title></circle><circle cx="159.675" cy="315.875" r="3.4"><title>KICSTOR</title></circle><circle cx="220.598" cy="-302.033" r="3.4"><title>KLHL22</title></circle><circle cx="-45.732" cy="231.055" r="3.4"><title>KPTN</title></circle><circle cx="192.964" cy="-176.253" r="3.4"><title>KRAS</title></circle><circle cx="-150.427" cy="215.901" r="3.4"><title>LAMTOR1</title></circle><circle cx="-92.382" cy="305.699" r="3.4"><title>LAMTOR2</title></circle><circle cx="187.904" cy="261.605" r="3.4"><title>LAMTOR3</title></circle><circle cx="-189.293" cy="287.696" r="3.4"><title>LAMTOR4</title></circle><circle cx="-147.654" cy="228.646" r="3.4"><title>LAMTOR5</title></circle><circle cx="-305.362" cy="-65.899" r="3.4"><title>LARP1</title></circle><circle cx="-150.737" cy="191.489" r="3.4"><title>LARS1</title></circle><circle cx="55.057" cy="305.185" r="3.4"><title>LEUCINE</title></circle><circle cx="-25.605" cy="-277.515" r="3.4"><title>LPIN1</title></circle><circle cx="-207.303" cy="-269.408" r="3.4"><title>MAP1LC3B</title></circle><circle cx="-199.528" cy="-83.197" r="3.4"><title>MAP2K1</title></circle><circle cx="-140.796" cy="-160.065" r="3.4"><title>MAP2K2</title></circle><circle cx="224.233" cy="-250.687" r="3.4"><title>MAP3K7</title></circle><circle cx="-114.626" cy="-74.732" r="3.4"><title>MAPK1</title></circle><circle cx="254.681" cy="-266.316" r="3.4"><title>MAPK3</title></circle><circle cx="295.508" cy="-83.246" r="3.4"><title>MAPKAP1</title></circle><circle cx="-2.837" cy="-212.523" r="3.4"><title>MET</title></circle><circle cx="-125.171" cy="229.118" r="3.4"><title>MIOS</title></circle><circle cx="-202.984" cy="-33.994" r="3.4"><title>MITF</title></circle><circle cx="286.068" cy="56.927" r="3.4"><title>MLST8</title></circle><circle cx="-223.474" cy="-252.451" r="3.4"><title>MTHFD2</title></circle><circle cx="243.580" cy="-19.023" r="3.4"><title>MTOR</title></circle><circle cx="-27.437" cy="-76.425" r="3.4"><title>MTORC1</title></circle><circle cx="199.703" cy="-138.475" r="3.4"><title>MTORC2</title></circle><circle cx="203.167" cy="-226.759" r="3.4"><title>MYC</title></circle><circle cx="-230.464" cy="-232.097" r="3.4"><title>NDRG1</title></circle><circle cx="125.911" cy="-282.906" r="3.4"><title>NFKBIA</title></circle><circle cx="-199.198" cy="-224.112" r="3.4"><title>NPC1</title></circle><circle cx="-172.609" cy="255.592" r="3.4"><title>NPRL2</title></circle><circle cx="-245.069" cy="316.260" r="3.4"><title>NPRL3</title></circle><circle cx="184.817" cy="-133.763" r="3.4"><title>NRAS</title></circle><circle cx="-214.564" cy="-216.880" r="3.4"><title>NRG1</title></circle><circle cx="205.436" cy="-61.183" r="3.4"><title>OMIPALISIB</title></circle><circle cx="204.533" cy="-6.540" r="3.4"><title>ONATASERTIB</title></circle><circle cx="306.189" cy="-247.495" r="3.4"><title>OSI-027</title></circle><circle cx="-288.894" cy="-122.467" r="3.4"><title>PDCD4</title></circle><circle cx="-78.927" cy="-208.411" r="3.4"><title>PDGFB</title></circle><circle cx="205.555" cy="-240.939" r="3.4"><title>PDGFRB</title></circle><circle cx="274.181" cy="101.667" r="3.4"><title>PDPK1</title></circle><circle cx="-116.525" cy="-302.240" r="3.4"><title>PHLPP1</title></circle><circle cx="-219.006" cy="-219.804" r="3.4"><title>PHLPP2</title></circle><circle cx="-214.135" cy="-79.258" r="3.4"><title>PIK3C3</title></circle><circle cx="233.888" cy="69.695" r="3.4"><title>PIK3CA</title></circle><circle cx="294.555" cy="195.356" r="3.4"><title>PIK3CB</title></circle><circle cx="294.101" cy="144.068" r="3.4"><title>PIK3CD</title></circle><circle cx="246.527" cy="260.458" r="3.4"><title>PIK3CG</title></circle><circle cx="297.798" cy="23.830" r="3.4"><title>PIK3R1</title></circle><circle cx="291.852" cy="197.187" r="3.4"><title>PIK3R2</title></circle><circle cx="302.759" cy="180.979" r="3.4"><title>PIP2</title></circle><circle cx="294.101" cy="190.721" r="3.4"><title>PIP3</title></circle><circle cx="196.640" cy="204.724" r="3.4"><title>PP242</title></circle><circle cx="-199.057" cy="-265.873" r="3.4"><title>PPARG</title></circle><circle cx="270.126" cy="-146.656" r="3.4"><title>PPARGC1A</title></circle><circle cx="176.458" cy="-222.117" r="3.4"><title>PPP2CA</title></circle><circle cx="-33.659" cy="-212.132" r="3.4"><title>PPP2CB</title></circle><circle cx="236.517" cy="-250.361" r="3.4"><title>PPP2R1A</title></circle><circle cx="189.105" cy="-207.967" r="3.4"><title>PPP2R2A</title></circle><circle cx="-65.024" cy="101.294" r="3.4"><title>PRKAA1</title></circle><circle cx="-220.585" cy="225.442" r="3.4"><title>PRKAA2</title></circle><circle cx="-222.526" cy="303.960" r="3.4"><title>PRKAB1</title></circle><circle cx="-277.248" cy="257.950" r="3.4"><title>PRKAB2</title></circle><circle cx="-279.402" cy="295.852" r="3.4"><title>PRKAG1</title></circle><circle cx="-275.934" cy="307.934" r="3.4"><title>PRKAG2</title></circle><circle cx="-147.808" cy="289.205" r="3.4"><title>PRKAG3</title></circle><circle cx="129.385" cy="-302.215" r="3.4"><title>PRKCA</title></circle><circle cx="-168.963" cy="-270.698" r="3.4"><title>PRKCB</title></circle><circle cx="-161.179" cy="-299.173" r="3.4"><title>PRKCE</title></circle><circle cx="-218.750" cy="-227.685" r="3.4"><title>PRKCG</title></circle><circle cx="-190.561" cy="-272.729" r="3.4"><title>PRKCZ</title></circle><circle cx="-186.243" cy="-283.526" r="3.4"><title>PRPS1</title></circle><circle cx="314.573" cy="-235.935" r="3.4"><title>PRR5</title></circle><circle cx="212.678" cy="215.514" r="3.4"><title>PRR5L</title></circle><circle cx="306.260" cy="202.047" r="3.4"><title>PTEN</title></circle><circle cx="-235.102" cy="-236.299" r="3.4"><title>PXN</title></circle><circle cx="-132.790" cy="-198.797" r="3.4"><title>RAB11A</title></circle><circle cx="281.943" cy="-303.535" r="3.4"><title>RAB1A</title></circle><circle cx="-2.646" cy="-284.140" r="3.4"><title>RAB34</title></circle><circle cx="-145.806" cy="-229.124" r="3.4"><title>RAB5A</title></circle><circle cx="203.836" cy="-233.663" r="3.4"><title>RAB7A</title></circle><circle cx="-231.626" cy="-218.026" r="3.4"><title>RAC1</title></circle><circle cx="-88.443" cy="-136.413" r="3.4"><title>RAF1</title></circle><circle cx="-160.025" cy="231.700" r="3.4"><title>RAGULATOR</title></circle><circle cx="211.455" cy="-203.058" r="3.4"><title>RAPALINK-1</title></circle><circle cx="-306.714" cy="-197.753" r="3.4"><title>RB1CC1</title></circle><circle cx="-129.409" cy="-284.977" r="3.4"><title>RELA</title></circle><circle cx="115.928" cy="205.100" r="3.4"><title>RHEB</title></circle><circle cx="183.686" cy="219.527" r="3.4"><title>RHEBL1</title></circle><circle cx="23.210" cy="-284.259" r="3.4"><title>RHOA</title></circle><circle cx="188.777" cy="-111.620" r="3.4"><title>RHOQ</title></circle><circle cx="246.080" cy="227.763" r="3.4"><title>RICTOR</title></circle><circle cx="195.257" cy="68.766" r="3.4"><title>RIDAFOROLIMUS</title></circle><circle cx="161.131" cy="174.355" r="3.4"><title>RMC-4627</title></circle><circle cx="222.284" cy="-193.245" r="3.4"><title>RMC-5552</title></circle><circle cx="305.738" cy="-268.260" r="3.4"><title>RMC-6272</title></circle><circle cx="143.276" cy="-220.984" r="3.4"><title>RNF152</title></circle><circle cx="-316.822" cy="51.140" r="3.4"><title>RPS6</title></circle><circle cx="-159.077" cy="18.583" r="3.4"><title>RPS6KA1</title></circle><circle cx="-212.471" cy="106.324" r="3.4"><title>RPS6KA3</title></circle><circle cx="-35.906" cy="-3.614" r="3.4"><title>RPS6KB1</title></circle><circle cx="-307.332" cy="87.233" r="3.4"><title>RPS6KB2</title></circle><circle cx="91.340" cy="-1.861" r="3.4"><title>RPTOR</title></circle><circle cx="-8.857" cy="312.066" r="3.4"><title>RRAGA</title></circle><circle cx="-124.566" cy="264.875" r="3.4"><title>RRAGB</title></circle><circle cx="-7.466" cy="240.988" r="3.4"><title>RRAGC</title></circle><circle cx="-8.521" cy="301.342" r="3.4"><title>RRAGD</title></circle><circle cx="-110.068" cy="286.560" r="3.4"><title>SAM</title></circle><circle cx="-45.083" cy="244.220" r="3.4"><title>SAMTOR</title></circle><circle cx="263.039" cy="-249.067" r="3.4"><title>SAPANISERTIB</title></circle><circle cx="-173.574" cy="-285.309" r="3.4"><title>SCD</title></circle><circle cx="43.813" cy="309.828" r="3.4"><title>SEC13</title></circle><circle cx="-66.165" cy="290.781" r="3.4"><title>SEH1L</title></circle><circle cx="-159.413" cy="213.073" r="3.4"><title>SESN1</title></circle><circle cx="4.779" cy="238.149" r="3.4"><title>SESN2</title></circle><circle cx="157.346" cy="295.927" r="3.4"><title>SESN3</title></circle><circle cx="-57.881" cy="-273.610" r="3.4"><title>SGK1</title></circle><circle cx="201.074" cy="110.086" r="3.4"><title>SIROLIMUS</title></circle><circle cx="-52.885" cy="-210.392" r="3.4"><title>SKP2</title></circle><circle cx="-79.897" cy="215.646" r="3.4"><title>SLC38A9</title></circle><circle cx="179.116" cy="279.787" r="3.4"><title>SLC3A2</title></circle><circle cx="161.738" cy="296.672" r="3.4"><title>SLC7A5</title></circle><circle cx="-207.304" cy="126.882" r="3.4"><title>SQSTM1</title></circle><circle cx="-150.099" cy="-292.453" r="3.4"><title>SREBF1</title></circle><circle cx="-183.323" cy="-298.364" r="3.4"><title>SREBF2</title></circle><circle cx="267.004" cy="-303.287" r="3.4"><title>STAT3</title></circle><circle cx="-276.281" cy="298.813" r="3.4"><title>STK11</title></circle><circle cx="-259.594" cy="275.403" r="3.4"><title>STRADA</title></circle><circle cx="234.476" cy="243.385" r="3.4"><title>SZT2</title></circle><circle cx="211.423" cy="209.223" r="3.4"><title>TBC1D1</title></circle><circle cx="250.342" cy="250.121" r="3.4"><title>TBC1D4</title></circle><circle cx="245.514" cy="211.463" r="3.4"><title>TBC1D7</title></circle><circle cx="149.970" cy="-271.088" r="3.4"><title>TBK1</title></circle><circle cx="220.722" cy="169.841" r="3.4"><title>TEMSIROLIMUS</title></circle><circle cx="-207.769" cy="-126.068" r="3.4"><title>TFE3</title></circle><circle cx="-88.294" cy="-28.444" r="3.4"><title>TFEB</title></circle><circle cx="301.824" cy="-141.027" r="3.4"><title>TORIN1</title></circle><circle cx="281.769" cy="-64.584" r="3.4"><title>TORIN2</title></circle><circle cx="-223.015" cy="208.994" r="3.4"><title>TP53</title></circle><circle cx="228.741" cy="-271.395" r="3.4"><title>TRAF6</title></circle><circle cx="108.186" cy="136.293" r="3.4"><title>TSC-COMPLEX</title></circle><circle cx="267.237" cy="225.541" r="3.4"><title>TSC1</title></circle><circle cx="107.511" cy="103.395" r="3.4"><title>TSC2</title></circle><circle cx="-109.706" cy="-229.446" r="3.4"><title>TSC22D1</title></circle><circle cx="186.406" cy="8.594" r="3.4"><title>UBE2D1</title></circle><circle cx="267.585" cy="-215.613" r="3.4"><title>UBE2D2</title></circle><circle cx="187.344" cy="32.810" r="3.4"><title>UBE2D3</title></circle><circle cx="-236.421" cy="-70.606" r="3.4"><title>ULK1</title></circle><circle cx="-210.863" cy="-280.828" r="3.4"><title>ULK2</title></circle><circle cx="-234.869" cy="-262.283" r="3.4"><title>UVRAG</title></circle><circle cx="-106.199" cy="220.970" r="3.4"><title>V-ATPASE</title></circle><circle cx="30.792" cy="-223.912" r="3.4"><title>VEGFA</title></circle><circle cx="215.631" cy="159.092" r="3.4"><title>VISTUSERTIB</title></circle><circle cx="304.110" cy="-162.581" r="3.4"><title>VOXTALISIB</title></circle><circle cx="9.663" cy="207.431" r="3.4"><title>WDR24</title></circle><circle cx="-138.182" cy="309.667" r="3.4"><title>WDR59</title></circle><circle cx="-202.873" cy="5.276" r="3.4"><title>WIPI2</title></circle><circle cx="192.889" cy="-217.354" r="3.4"><title>WNT3A</title></circle><circle cx="77.353" cy="-229.221" r="3.4"><title>WWTR1</title></circle><circle cx="214.168" cy="-245.001" r="3.4"><title>YAP1</title></circle><circle cx="266.671" cy="208.852" r="3.4"><title>YWHAE</title></circle><circle cx="320.377" cy="95.361" r="3.4"><title>YWHAZ</title></circle><circle cx="206.138" cy="203.123" r="3.4"><title>ZOTAROLIMUS</title></circle></g></svg>
