<svg xmlns="http://www.w3.org/2000/svg" viewBox="-370.711 -361.996 731.971 719.119" role="img"><title>Amino-acid sensing: Rag-Ragulator-GATOR-KICSTOR</title><defs><marker id="arrow" markerHeight="7" markerWidth="7" orient="auto" refX="6" refY="3.5"><path d="M0,0 L7,3.5 L0,7 z" fill="#547e70"/></marker><marker id="tee" markerHeight="9" markerWidth="7" orient="auto" refX="6" refY="4.5"><path d="M6,0 L6,9" fill="none" stroke="#ff6b6b" stroke-width="2"/></marker></defs><rect x="-10000" y="-10000" width="20000" height="20000" fill="#08130f"/><path d="M -101.920 243.533 L 49.603 -220.489" fill="none" stroke="#547e70" stroke-width="2" marker-end="url(#arrow)"/><path d="M 233.690 122.821 L 49.603 -220.489" fill="none" stroke="#547e70" stroke-width="2" marker-end="url(#arrow)"/><path d="M -38.941 144.857 L -69.136 -133.117" fill="none" stroke="#547e70" stroke-width="2" stroke-dasharray="8 7"/><path d="M -38.941 144.857 L 140.898 51.456" fill="none" stroke="#547e70" stroke-width="2" stroke-dasharray="8 7"/><path d="M 1.473 -301.996 L 79.683 -170.278" fill="none" stroke="#547e70" stroke-width="2" stroke-dasharray="8 7"/><path d="M 68.145 88.883 L 79.683 -170.278" fill="none" stroke="#547e70" stroke-width="2" stroke-dasharray="8 7"/><path d="M 44.715 260.186 L -173.777 71.733" fill="none" stroke="#547e70" stroke-width="2" stroke-dasharray="8 7"/><path d="M -38.941 144.857 L 233.690 122.821" fill="none" stroke="#547e70" stroke-width="2" marker-end="url(#arrow)"/><path d="M -38.941 144.857 L -255.280 67.291" fill="none" stroke="#547e70" stroke-width="2" marker-end="url(#arrow)"/><path d="M -173.777 71.733 L -101.920 243.533" fill="none" stroke="#547e70" stroke-width="2" marker-end="url(#arrow)"/><path d="M -173.777 71.733 L -89.351 -248.420" fill="none" stroke="#547e70" stroke-width="2" marker-end="url(#arrow)"/><path d="M 172.811 145.645 L -101.920 243.533" fill="none" stroke="#547e70" stroke-width="2" marker-end="url(#arrow)"/><path d="M -24.160 -186.441 L 239.657 -110.728" fill="none" stroke="#547e70" stroke-width="2" marker-end="url(#arrow)"/><path d="M 172.811 145.645 L -89.351 -248.420" fill="none" stroke="#547e70" stroke-width="2" marker-end="url(#arrow)"/><path d="M 223.982 30.136 L 1.473 -301.996" fill="none" stroke="#547e70" stroke-width="2" marker-end="url(#arrow)"/><path d="M 223.982 30.136 L -144.800 -173.519" fill="none" stroke="#547e70" stroke-width="2" marker-end="url(#arrow)"/><path d="M 74.000 0.000 L 68.145 88.883" fill="none" stroke="#547e70" stroke-width="2" marker-end="url(#arrow)"/><path d="M 74.000 0.000 L -300.711 -27.870" fill="none" stroke="#547e70" stroke-width="2" marker-end="url(#arrow)"/><path d="M 142.781 -222.058 L 44.715 260.186" fill="none" stroke="#547e70" stroke-width="2" marker-end="url(#arrow)"/><path d="M -300.711 -27.870 L 239.657 -110.728" fill="none" stroke="#547e70" stroke-width="2" marker-end="url(#arrow)"/><path d="M -173.777 71.733 L -101.920 243.533" fill="none" stroke="#547e70" stroke-width="2" marker-end="url(#tee)"/><path d="M 79.683 -170.278 L -173.777 71.733" fill="none" stroke="#547e70" stroke-width="2" marker-end="url(#tee)"/><path d="M 183.615 -40.367 L -173.777 71.733" fill="none" stroke="#547e70" stroke-width="2" marker-end="url(#arrow)"/><path d="M -38.941 144.857 L 233.690 122.821" fill="none" stroke="#547e70" stroke-width="2" marker-end="url(#arrow)"/><path d="M -101.920 243.533 L 233.690 122.821" fill="none" stroke="#547e70" stroke-width="2" stroke-dasharray="8 7"/><path d="M -89.351 -248.420 L -255.280 67.291" fill="none" stroke="#547e70" stroke-width="2" stroke-dasharray="8 7"/><g transform="translate(74.000 0.000)"><rect x="-28" y="-17" width="56" height="34" rx="9" fill="#14382b" stroke="#8be7aa" stroke-width="2"/><text y="35" fill="#dff9e8" font-family="Arial, sans-serif" font-size="11" text-anchor="middle">ARGININE</text></g><g transform="translate(-82.585 75.655)"><rect x="-28" y="-17" width="56" height="34" rx="9" fill="#14382b" stroke="#8be7aa" stroke-width="2"/><text y="35" fill="#dff9e8" font-family="Arial, sans-serif" font-size="11" text-anchor="middle">ATP6V0D1</text></g><g transform="translate(9.792 -111.571)"><rect x="-28" y="-17" width="56" height="34" rx="9" fill="#14382b" stroke="#8be7aa" stroke-width="2"/><text y="35" fill="#dff9e8" font-family="Arial, sans-serif" font-size="11" text-anchor="middle">ATP6V1A</text></g><g transform="translate(68.145 88.883)"><rect x="-28" y="-17" width="56" height="34" rx="9" fill="#14382b" stroke="#8be7aa" stroke-width="2"/><text y="35" fill="#dff9e8" font-family="Arial, sans-serif" font-size="11" text-anchor="middle">CASTOR1</text></g><g transform="translate(-147.707 -26.127)"><rect x="-28" y="-17" width="56" height="34" rx="9" fill="#14382b" stroke="#8be7aa" stroke-width="2"/><text y="35" fill="#dff9e8" font-family="Arial, sans-serif" font-size="11" text-anchor="middle">CASTOR2</text></g><g transform="translate(126.563 -80.509)"><rect x="-28" y="-17" width="56" height="34" rx="9" fill="#14382b" stroke="#8be7aa" stroke-width="2"/><text y="35" fill="#dff9e8" font-family="Arial, sans-serif" font-size="11" text-anchor="middle">DEPDC5</text></g><g transform="translate(-38.941 144.857)"><rect x="-28" y="-17" width="56" height="34" rx="9" fill="#14382b" stroke="#8be7aa" stroke-width="2"/><text y="35" fill="#dff9e8" font-family="Arial, sans-serif" font-size="11" text-anchor="middle">FLCN</text></g><g transform="translate(-69.136 -133.117)"><rect x="-28" y="-17" width="56" height="34" rx="9" fill="#14382b" stroke="#8be7aa" stroke-width="2"/><text y="35" fill="#dff9e8" font-family="Arial, sans-serif" font-size="11" text-anchor="middle">FNIP1</text></g><g transform="translate(140.898 51.456)"><rect x="-28" y="-17" width="56" height="34" rx="9" fill="#14382b" stroke="#8be7aa" stroke-width="2"/><text y="35" fill="#dff9e8" font-family="Arial, sans-serif" font-size="11" text-anchor="middle">FNIP2</text></g><g transform="translate(-173.777 71.733)"><rect x="-28" y="-17" width="56" height="34" rx="9" fill="#14382b" stroke="#8be7aa" stroke-width="2"/><text y="35" fill="#dff9e8" font-family="Arial, sans-serif" font-size="11" text-anchor="middle">GATOR1</text></g><g transform="translate(79.683 -170.278)"><rect x="-28" y="-17" width="56" height="34" rx="9" fill="#14382b" stroke="#8be7aa" stroke-width="2"/><text y="35" fill="#dff9e8" font-family="Arial, sans-serif" font-size="11" text-anchor="middle">GATOR2</text></g><g transform="translate(56.265 179.383)"><rect x="-28" y="-17" width="56" height="34" rx="9" fill="#14382b" stroke="#8be7aa" stroke-width="2"/><text y="35" fill="#dff9e8" font-family="Arial, sans-serif" font-size="11" text-anchor="middle">ITFG2</text></g><g transform="translate(-162.660 -94.265)"><rect x="-28" y="-17" width="56" height="34" rx="9" fill="#14382b" stroke="#8be7aa" stroke-width="2"/><text y="35" fill="#dff9e8" font-family="Arial, sans-serif" font-size="11" text-anchor="middle">KICS2</text></g><g transform="translate(183.615 -40.367)"><rect x="-28" y="-17" width="56" height="34" rx="9" fill="#14382b" stroke="#8be7aa" stroke-width="2"/><text y="35" fill="#dff9e8" font-family="Arial, sans-serif" font-size="11" text-anchor="middle">KICSTOR</text></g><g transform="translate(-108.124 153.796)"><rect x="-28" y="-17" width="56" height="34" rx="9" fill="#14382b" stroke="#8be7aa" stroke-width="2"/><text y="35" fill="#dff9e8" font-family="Arial, sans-serif" font-size="11" text-anchor="middle">KPTN</text></g><g transform="translate(-24.160 -186.441)"><rect x="-28" y="-17" width="56" height="34" rx="9" fill="#14382b" stroke="#8be7aa" stroke-width="2"/><text y="35" fill="#dff9e8" font-family="Arial, sans-serif" font-size="11" text-anchor="middle">LAMTOR1</text></g><g transform="translate(172.811 145.645)"><rect x="-28" y="-17" width="56" height="34" rx="9" fill="#14382b" stroke="#8be7aa" stroke-width="2"/><text y="35" fill="#dff9e8" font-family="Arial, sans-serif" font-size="11" text-anchor="middle">LAMTOR2</text></g><g transform="translate(-225.807 9.338)"><rect x="-28" y="-17" width="56" height="34" rx="9" fill="#14382b" stroke="#8be7aa" stroke-width="2"/><text y="35" fill="#dff9e8" font-family="Arial, sans-serif" font-size="11" text-anchor="middle">LAMTOR3</text></g><g transform="translate(160.195 -159.416)"><rect x="-28" y="-17" width="56" height="34" rx="9" fill="#14382b" stroke="#8be7aa" stroke-width="2"/><text y="35" fill="#dff9e8" font-family="Arial, sans-serif" font-size="11" text-anchor="middle">LAMTOR4</text></g><g transform="translate(-10.439 225.759)"><rect x="-28" y="-17" width="56" height="34" rx="9" fill="#14382b" stroke="#8be7aa" stroke-width="2"/><text y="35" fill="#dff9e8" font-family="Arial, sans-serif" font-size="11" text-anchor="middle">LAMTOR5</text></g><g transform="translate(-144.800 -173.519)"><rect x="-28" y="-17" width="56" height="34" rx="9" fill="#14382b" stroke="#8be7aa" stroke-width="2"/><text y="35" fill="#dff9e8" font-family="Arial, sans-serif" font-size="11" text-anchor="middle">LARS1</text></g><g transform="translate(223.982 30.136)"><rect x="-28" y="-17" width="56" height="34" rx="9" fill="#14382b" stroke="#8be7aa" stroke-width="2"/><text y="35" fill="#dff9e8" font-family="Arial, sans-serif" font-size="11" text-anchor="middle">LEUCINE</text></g><g transform="translate(-185.514 129.076)"><rect x="-28" y="-17" width="56" height="34" rx="9" fill="#14382b" stroke="#8be7aa" stroke-width="2"/><text y="35" fill="#dff9e8" font-family="Arial, sans-serif" font-size="11" text-anchor="middle">MIOS</text></g><g transform="translate(49.603 -220.489)"><rect x="-28" y="-17" width="56" height="34" rx="9" fill="#14382b" stroke="#8be7aa" stroke-width="2"/><text y="35" fill="#dff9e8" font-family="Arial, sans-serif" font-size="11" text-anchor="middle">MTORC1</text></g><g transform="translate(112.363 196.088)"><rect x="-28" y="-17" width="56" height="34" rx="9" fill="#14382b" stroke="#8be7aa" stroke-width="2"/><text y="35" fill="#dff9e8" font-family="Arial, sans-serif" font-size="11" text-anchor="middle">NPRL2</text></g><g transform="translate(-251.511 -80.239)"><rect x="-28" y="-17" width="56" height="34" rx="9" fill="#14382b" stroke="#8be7aa" stroke-width="2"/><text y="35" fill="#dff9e8" font-family="Arial, sans-serif" font-size="11" text-anchor="middle">NPRL3</text></g><g transform="translate(239.657 -110.728)"><rect x="-28" y="-17" width="56" height="34" rx="9" fill="#14382b" stroke="#8be7aa" stroke-width="2"/><text y="35" fill="#dff9e8" font-family="Arial, sans-serif" font-size="11" text-anchor="middle">RAGULATOR</text></g><g transform="translate(-101.920 243.533)"><rect x="-28" y="-17" width="56" height="34" rx="9" fill="#14382b" stroke="#8be7aa" stroke-width="2"/><text y="35" fill="#dff9e8" font-family="Arial, sans-serif" font-size="11" text-anchor="middle">RRAGA</text></g><g transform="translate(-89.351 -248.420)"><rect x="-28" y="-17" width="56" height="34" rx="9" fill="#14382b" stroke="#8be7aa" stroke-width="2"/><text y="35" fill="#dff9e8" font-family="Arial, sans-serif" font-size="11" text-anchor="middle">RRAGB</text></g><g transform="translate(233.690 122.821)"><rect x="-28" y="-17" width="56" height="34" rx="9" fill="#14382b" stroke="#8be7aa" stroke-width="2"/><text y="35" fill="#dff9e8" font-family="Arial, sans-serif" font-size="11" text-anchor="middle">RRAGC</text></g><g transform="translate(-255.280 67.291)"><rect x="-28" y="-17" width="56" height="34" rx="9" fill="#14382b" stroke="#8be7aa" stroke-width="2"/><text y="35" fill="#dff9e8" font-family="Arial, sans-serif" font-size="11" text-anchor="middle">RRAGD</text></g><g transform="translate(142.781 -222.058)"><rect x="-28" y="-17" width="56" height="34" rx="9" fill="#14382b" stroke="#8be7aa" stroke-width="2"/><text y="35" fill="#dff9e8" font-family="Arial, sans-serif" font-size="11" text-anchor="middle">SAM</text></g><g transform="translate(44.715 260.186)"><rect x="-28" y="-17" width="56" height="34" rx="9" fill="#14382b" stroke="#8be7aa" stroke-width="2"/><text y="35" fill="#dff9e8" font-family="Arial, sans-serif" font-size="11" text-anchor="middle">SAMTOR</text></g><g transform="translate(-208.725 -161.648)"><rect x="-28" y="-17" width="56" height="34" rx="9" fill="#14382b" stroke="#8be7aa" stroke-width="2"/><text y="35" fill="#dff9e8" font-family="Arial, sans-serif" font-size="11" text-anchor="middle">SEC13</text></g><g transform="translate(263.099 -21.797)"><rect x="-28" y="-17" width="56" height="34" rx="9" fill="#14382b" stroke="#8be7aa" stroke-width="2"/><text y="35" fill="#dff9e8" font-family="Arial, sans-serif" font-size="11" text-anchor="middle">SEH1L</text></g><g transform="translate(-179.277 193.793)"><rect x="-28" y="-17" width="56" height="34" rx="9" fill="#14382b" stroke="#8be7aa" stroke-width="2"/><text y="35" fill="#dff9e8" font-family="Arial, sans-serif" font-size="11" text-anchor="middle">SESN1</text></g><g transform="translate(1.473 -301.996)"><rect x="-28" y="-17" width="56" height="34" rx="9" fill="#14382b" stroke="#8be7aa" stroke-width="2"/><text y="35" fill="#dff9e8" font-family="Arial, sans-serif" font-size="11" text-anchor="middle">SESN2</text></g><g transform="translate(202.909 223.678)"><rect x="-28" y="-17" width="56" height="34" rx="9" fill="#14382b" stroke="#8be7aa" stroke-width="2"/><text y="35" fill="#dff9e8" font-family="Arial, sans-serif" font-size="11" text-anchor="middle">SESN3</text></g><g transform="translate(-300.711 -27.870)"><rect x="-28" y="-17" width="56" height="34" rx="9" fill="#14382b" stroke="#8be7aa" stroke-width="2"/><text y="35" fill="#dff9e8" font-family="Arial, sans-serif" font-size="11" text-anchor="middle">SLC38A9</text></g><g transform="translate(240.561 -182.577)"><rect x="-28" y="-17" width="56" height="34" rx="9" fill="#14382b" stroke="#8be7aa" stroke-width="2"/><text y="35" fill="#dff9e8" font-family="Arial, sans-serif" font-size="11" text-anchor="middle">SLC3A2</text></g><g transform="translate(-54.053 297.123)"><rect x="-28" y="-17" width="56" height="34" rx="9" fill="#14382b" stroke="#8be7aa" stroke-width="2"/><text y="35" fill="#dff9e8" font-family="Arial, sans-serif" font-size="11" text-anchor="middle">SLC7A5</text></g><g transform="translate(-160.847 -255.602)"><rect x="-28" y="-17" width="56" height="34" rx="9" fill="#14382b" stroke="#8be7aa" stroke-width="2"/><text y="35" fill="#dff9e8" font-family="Arial, sans-serif" font-size="11" text-anchor="middle">SZT2</text></g><g transform="translate(291.260 79.822)"><rect x="-28" y="-17" width="56" height="34" rx="9" fill="#14382b" stroke="#8be7aa" stroke-width="2"/><text y="35" fill="#dff9e8" font-family="Arial, sans-serif" font-size="11" text-anchor="middle">V-ATPASE</text></g><g transform="translate(-268.685 137.885)"><rect x="-28" y="-17" width="56" height="34" rx="9" fill="#14382b" stroke="#8be7aa" stroke-width="2"/><text y="35" fill="#dff9e8" font-family="Arial, sans-serif" font-size="11" text-anchor="middle">WDR24</text></g><g transform="translate(104.980 -283.166)"><rect x="-28" y="-17" width="56" height="34" rx="9" fill="#14382b" stroke="#8be7aa" stroke-width="2"/><text y="35" fill="#dff9e8" font-family="Arial, sans-serif" font-size="11" text-anchor="middle">WDR59</text></g></svg>
