<svg xmlns="http://www.w3.org/2000/svg" viewBox="-245.626 -248.425 501.194 489.716" role="img"><title>mTORC2 outputs</title><defs><marker id="arrow" markerHeight="7" markerWidth="7" orient="auto" refX="6" refY="3.5"><path d="M0,0 L7,3.5 L0,7 z" fill="#547e70"/></marker><marker id="tee" markerHeight="9" markerWidth="7" orient="auto" refX="6" refY="4.5"><path d="M6,0 L6,9" fill="none" stroke="#ff6b6b" stroke-width="2"/></marker></defs><rect x="-10000" y="-10000" width="20000" height="20000" fill="#08130f"/><path d="M 69.362 90.470 L -24.417 -188.425" fill="none" stroke="#547e70" stroke-width="2" marker-end="url(#arrow)"/><path d="M 69.362 90.470 L -70.058 -134.892" fill="none" stroke="#547e70" stroke-width="2" marker-end="url(#arrow)"/><path d="M 69.362 90.470 L 142.777 52.142" fill="none" stroke="#547e70" stroke-width="2" marker-end="url(#arrow)"/><path d="M -24.417 -188.425 L -149.676 -26.476" fill="none" stroke="#547e70" stroke-width="2" marker-end="url(#arrow)"/><path d="M -24.417 -188.425 L 9.967 -113.563" fill="none" stroke="#547e70" stroke-width="2" marker-end="url(#arrow)"/><path d="M 69.362 90.470 L -24.417 -188.425" fill="none" stroke="#547e70" stroke-width="2" marker-end="url(#arrow)"/><path d="M 69.362 90.470 L -70.058 -134.892" fill="none" stroke="#547e70" stroke-width="2" marker-end="url(#arrow)"/><g transform="translate(76.000 0.000)"><rect x="-28" y="-17" width="56" height="34" rx="9" fill="#14382b" stroke="#8be7aa" stroke-width="2"/><text y="35" fill="#dff9e8" font-family="Arial, sans-serif" font-size="11" text-anchor="middle">CDC42</text></g><g transform="translate(-84.060 77.006)"><rect x="-28" y="-17" width="56" height="34" rx="9" fill="#14382b" stroke="#8be7aa" stroke-width="2"/><text y="35" fill="#dff9e8" font-family="Arial, sans-serif" font-size="11" text-anchor="middle">FOXO1</text></g><g transform="translate(9.967 -113.563)"><rect x="-28" y="-17" width="56" height="34" rx="9" fill="#14382b" stroke="#8be7aa" stroke-width="2"/><text y="35" fill="#dff9e8" font-family="Arial, sans-serif" font-size="11" text-anchor="middle">FOXO3</text></g><g transform="translate(69.362 90.470)"><rect x="-28" y="-17" width="56" height="34" rx="9" fill="#14382b" stroke="#8be7aa" stroke-width="2"/><text y="35" fill="#dff9e8" font-family="Arial, sans-serif" font-size="11" text-anchor="middle">MTORC2</text></g><g transform="translate(-149.676 -26.476)"><rect x="-28" y="-17" width="56" height="34" rx="9" fill="#14382b" stroke="#8be7aa" stroke-width="2"/><text y="35" fill="#dff9e8" font-family="Arial, sans-serif" font-size="11" text-anchor="middle">NDRG1</text></g><g transform="translate(128.251 -81.583)"><rect x="-28" y="-17" width="56" height="34" rx="9" fill="#14382b" stroke="#8be7aa" stroke-width="2"/><text y="35" fill="#dff9e8" font-family="Arial, sans-serif" font-size="11" text-anchor="middle">PHLPP1</text></g><g transform="translate(-39.460 146.789)"><rect x="-28" y="-17" width="56" height="34" rx="9" fill="#14382b" stroke="#8be7aa" stroke-width="2"/><text y="35" fill="#dff9e8" font-family="Arial, sans-serif" font-size="11" text-anchor="middle">PHLPP2</text></g><g transform="translate(-70.058 -134.892)"><rect x="-28" y="-17" width="56" height="34" rx="9" fill="#14382b" stroke="#8be7aa" stroke-width="2"/><text y="35" fill="#dff9e8" font-family="Arial, sans-serif" font-size="11" text-anchor="middle">PRKCA</text></g><g transform="translate(142.777 52.142)"><rect x="-28" y="-17" width="56" height="34" rx="9" fill="#14382b" stroke="#8be7aa" stroke-width="2"/><text y="35" fill="#dff9e8" font-family="Arial, sans-serif" font-size="11" text-anchor="middle">PRKCB</text></g><g transform="translate(-175.626 72.496)"><rect x="-28" y="-17" width="56" height="34" rx="9" fill="#14382b" stroke="#8be7aa" stroke-width="2"/><text y="35" fill="#dff9e8" font-family="Arial, sans-serif" font-size="11" text-anchor="middle">PRKCE</text></g><g transform="translate(80.531 -172.090)"><rect x="-28" y="-17" width="56" height="34" rx="9" fill="#14382b" stroke="#8be7aa" stroke-width="2"/><text y="35" fill="#dff9e8" font-family="Arial, sans-serif" font-size="11" text-anchor="middle">PRKCG</text></g><g transform="translate(56.864 181.291)"><rect x="-28" y="-17" width="56" height="34" rx="9" fill="#14382b" stroke="#8be7aa" stroke-width="2"/><text y="35" fill="#dff9e8" font-family="Arial, sans-serif" font-size="11" text-anchor="middle">PRKCZ</text></g><g transform="translate(-164.390 -95.267)"><rect x="-28" y="-17" width="56" height="34" rx="9" fill="#14382b" stroke="#8be7aa" stroke-width="2"/><text y="35" fill="#dff9e8" font-family="Arial, sans-serif" font-size="11" text-anchor="middle">PXN</text></g><g transform="translate(185.568 -40.797)"><rect x="-28" y="-17" width="56" height="34" rx="9" fill="#14382b" stroke="#8be7aa" stroke-width="2"/><text y="35" fill="#dff9e8" font-family="Arial, sans-serif" font-size="11" text-anchor="middle">RAC1</text></g><g transform="translate(-109.275 155.432)"><rect x="-28" y="-17" width="56" height="34" rx="9" fill="#14382b" stroke="#8be7aa" stroke-width="2"/><text y="35" fill="#dff9e8" font-family="Arial, sans-serif" font-size="11" text-anchor="middle">RHOA</text></g><g transform="translate(-24.417 -188.425)"><rect x="-28" y="-17" width="56" height="34" rx="9" fill="#14382b" stroke="#8be7aa" stroke-width="2"/><text y="35" fill="#dff9e8" font-family="Arial, sans-serif" font-size="11" text-anchor="middle">SGK1</text></g></svg>
