<svg xmlns="http://www.w3.org/2000/svg" viewBox="-321.511 -308.420 631.168 611.953" role="img"><title>Growth factor -&gt; PI3K-AKT -&gt; TSC-Rheb -&gt; mTORC1</title><defs><marker id="arrow" markerHeight="7" markerWidth="7" orient="auto" refX="6" refY="3.5"><path d="M0,0 L7,3.5 L0,7 z" fill="#547e70"/></marker><marker id="tee" markerHeight="9" markerWidth="7" orient="auto" refX="6" refY="4.5"><path d="M6,0 L6,9" fill="none" stroke="#ff6b6b" stroke-width="2"/></marker></defs><rect x="-10000" y="-10000" width="20000" height="20000" fill="#08130f"/><path d="M -82.585 75.655 L -101.920 243.533" fill="none" stroke="#547e70" stroke-width="2" marker-end="url(#arrow)"/><path d="M -82.585 75.655 L -101.920 243.533" fill="none" stroke="#547e70" stroke-width="2" marker-end="url(#arrow)"/><path d="M -38.941 144.857 L 140.898 51.456" fill="none" stroke="#547e70" stroke-width="2" marker-end="url(#arrow)"/><path d="M 126.563 -80.509 L -69.136 -133.117" fill="none" stroke="#547e70" stroke-width="2" marker-end="url(#arrow)"/><path d="M -147.707 -26.127 L 56.265 179.383" fill="none" stroke="#547e70" stroke-width="2" marker-end="url(#arrow)"/><path d="M -69.136 -133.117 L -24.160 -186.441" fill="none" stroke="#547e70" stroke-width="2" marker-end="url(#arrow)"/><path d="M 140.898 51.456 L -24.160 -186.441" fill="none" stroke="#547e70" stroke-width="2" marker-end="url(#arrow)"/><path d="M 56.265 179.383 L 160.195 -159.416" fill="none" stroke="#547e70" stroke-width="2" marker-end="url(#arrow)"/><path d="M -162.660 -94.265 L 160.195 -159.416" fill="none" stroke="#547e70" stroke-width="2" marker-end="url(#arrow)"/><path d="M 183.615 -40.367 L 160.195 -159.416" fill="none" stroke="#547e70" stroke-width="2" marker-end="url(#arrow)"/><path d="M -108.124 153.796 L 160.195 -159.416" fill="none" stroke="#547e70" stroke-width="2" marker-end="url(#arrow)"/><path d="M -10.439 225.759 L 160.195 -159.416" fill="none" stroke="#547e70" stroke-width="2" marker-end="url(#tee)"/><path d="M -82.585 75.655 L -101.920 243.533" fill="none" stroke="#547e70" stroke-width="2" marker-end="url(#arrow)"/><path d="M 160.195 -159.416 L 79.683 -170.278" fill="none" stroke="#547e70" stroke-width="2" marker-end="url(#arrow)"/><path d="M 160.195 -159.416 L -82.585 75.655" fill="none" stroke="#547e70" stroke-width="2" marker-end="url(#arrow)"/><path d="M -82.585 75.655 L -251.511 -80.239" fill="none" stroke="#547e70" stroke-width="2" marker-end="url(#tee)"/><path d="M -251.511 -80.239 L -144.800 -173.519" fill="none" stroke="#547e70" stroke-width="2" marker-end="url(#tee)"/><path d="M -144.800 -173.519 L -173.777 71.733" fill="none" stroke="#547e70" stroke-width="2" marker-end="url(#arrow)"/><path d="M 239.657 -110.728 L -101.920 243.533" fill="none" stroke="#547e70" stroke-width="2" stroke-dasharray="8 7"/><path d="M -101.920 243.533 L 112.363 196.088" fill="none" stroke="#547e70" stroke-width="2" stroke-dasharray="8 7"/><path d="M 233.690 122.821 L -101.920 243.533" fill="none" stroke="#547e70" stroke-width="2" stroke-dasharray="8 7"/><path d="M -101.920 243.533 L -144.800 -173.519" fill="none" stroke="#547e70" stroke-width="2" marker-end="url(#arrow)"/><path d="M -82.585 75.655 L -101.920 243.533" fill="none" stroke="#547e70" stroke-width="2" marker-end="url(#arrow)"/><path d="M -82.585 75.655 L -101.920 243.533" fill="none" stroke="#547e70" stroke-width="2" marker-end="url(#arrow)"/><path d="M 9.792 -111.571 L -101.920 243.533" fill="none" stroke="#547e70" stroke-width="2" marker-end="url(#arrow)"/><path d="M 79.683 -170.278 L -82.585 75.655" fill="none" stroke="#547e70" stroke-width="2" marker-end="url(#arrow)"/><path d="M 79.683 -170.278 L 9.792 -111.571" fill="none" stroke="#547e70" stroke-width="2" marker-end="url(#arrow)"/><path d="M 79.683 -170.278 L 68.145 88.883" fill="none" stroke="#547e70" stroke-width="2" marker-end="url(#arrow)"/><path d="M -38.941 144.857 L -69.136 -133.117" fill="none" stroke="#547e70" stroke-width="2" marker-end="url(#arrow)"/><g transform="translate(74.000 0.000)"><rect x="-28" y="-17" width="56" height="34" rx="9" fill="#14382b" stroke="#8be7aa" stroke-width="2"/><text y="35" fill="#dff9e8" font-family="Arial, sans-serif" font-size="11" text-anchor="middle">14-3-3</text></g><g transform="translate(-82.585 75.655)"><rect x="-28" y="-17" width="56" height="34" rx="9" fill="#14382b" stroke="#8be7aa" stroke-width="2"/><text y="35" fill="#dff9e8" font-family="Arial, sans-serif" font-size="11" text-anchor="middle">AKT1</text></g><g transform="translate(9.792 -111.571)"><rect x="-28" y="-17" width="56" height="34" rx="9" fill="#14382b" stroke="#8be7aa" stroke-width="2"/><text y="35" fill="#dff9e8" font-family="Arial, sans-serif" font-size="11" text-anchor="middle">AKT2</text></g><g transform="translate(68.145 88.883)"><rect x="-28" y="-17" width="56" height="34" rx="9" fill="#14382b" stroke="#8be7aa" stroke-width="2"/><text y="35" fill="#dff9e8" font-family="Arial, sans-serif" font-size="11" text-anchor="middle">AKT3</text></g><g transform="translate(-147.707 -26.127)"><rect x="-28" y="-17" width="56" height="34" rx="9" fill="#14382b" stroke="#8be7aa" stroke-width="2"/><text y="35" fill="#dff9e8" font-family="Arial, sans-serif" font-size="11" text-anchor="middle">EGFR</text></g><g transform="translate(126.563 -80.509)"><rect x="-28" y="-17" width="56" height="34" rx="9" fill="#14382b" stroke="#8be7aa" stroke-width="2"/><text y="35" fill="#dff9e8" font-family="Arial, sans-serif" font-size="11" text-anchor="middle">IGF1R</text></g><g transform="translate(-38.941 144.857)"><rect x="-28" y="-17" width="56" height="34" rx="9" fill="#14382b" stroke="#8be7aa" stroke-width="2"/><text y="35" fill="#dff9e8" font-family="Arial, sans-serif" font-size="11" text-anchor="middle">INSR</text></g><g transform="translate(-69.136 -133.117)"><rect x="-28" y="-17" width="56" height="34" rx="9" fill="#14382b" stroke="#8be7aa" stroke-width="2"/><text y="35" fill="#dff9e8" font-family="Arial, sans-serif" font-size="11" text-anchor="middle">IRS1</text></g><g transform="translate(140.898 51.456)"><rect x="-28" y="-17" width="56" height="34" rx="9" fill="#14382b" stroke="#8be7aa" stroke-width="2"/><text y="35" fill="#dff9e8" font-family="Arial, sans-serif" font-size="11" text-anchor="middle">IRS2</text></g><g transform="translate(-173.777 71.733)"><rect x="-28" y="-17" width="56" height="34" rx="9" fill="#14382b" stroke="#8be7aa" stroke-width="2"/><text y="35" fill="#dff9e8" font-family="Arial, sans-serif" font-size="11" text-anchor="middle">MTORC1</text></g><g transform="translate(79.683 -170.278)"><rect x="-28" y="-17" width="56" height="34" rx="9" fill="#14382b" stroke="#8be7aa" stroke-width="2"/><text y="35" fill="#dff9e8" font-family="Arial, sans-serif" font-size="11" text-anchor="middle">PDPK1</text></g><g transform="translate(56.265 179.383)"><rect x="-28" y="-17" width="56" height="34" rx="9" fill="#14382b" stroke="#8be7aa" stroke-width="2"/><text y="35" fill="#dff9e8" font-family="Arial, sans-serif" font-size="11" text-anchor="middle">PIK3CA</text></g><g transform="translate(-162.660 -94.265)"><rect x="-28" y="-17" width="56" height="34" rx="9" fill="#14382b" stroke="#8be7aa" stroke-width="2"/><text y="35" fill="#dff9e8" font-family="Arial, sans-serif" font-size="11" text-anchor="middle">PIK3CB</text></g><g transform="translate(183.615 -40.367)"><rect x="-28" y="-17" width="56" height="34" rx="9" fill="#14382b" stroke="#8be7aa" stroke-width="2"/><text y="35" fill="#dff9e8" font-family="Arial, sans-serif" font-size="11" text-anchor="middle">PIK3CD</text></g><g transform="translate(-108.124 153.796)"><rect x="-28" y="-17" width="56" height="34" rx="9" fill="#14382b" stroke="#8be7aa" stroke-width="2"/><text y="35" fill="#dff9e8" font-family="Arial, sans-serif" font-size="11" text-anchor="middle">PIK3CG</text></g><g transform="translate(-24.160 -186.441)"><rect x="-28" y="-17" width="56" height="34" rx="9" fill="#14382b" stroke="#8be7aa" stroke-width="2"/><text y="35" fill="#dff9e8" font-family="Arial, sans-serif" font-size="11" text-anchor="middle">PIK3R1</text></g><g transform="translate(172.811 145.645)"><rect x="-28" y="-17" width="56" height="34" rx="9" fill="#14382b" stroke="#8be7aa" stroke-width="2"/><text y="35" fill="#dff9e8" font-family="Arial, sans-serif" font-size="11" text-anchor="middle">PIK3R2</text></g><g transform="translate(-225.807 9.338)"><rect x="-28" y="-17" width="56" height="34" rx="9" fill="#14382b" stroke="#8be7aa" stroke-width="2"/><text y="35" fill="#dff9e8" font-family="Arial, sans-serif" font-size="11" text-anchor="middle">PIP2</text></g><g transform="translate(160.195 -159.416)"><rect x="-28" y="-17" width="56" height="34" rx="9" fill="#14382b" stroke="#8be7aa" stroke-width="2"/><text y="35" fill="#dff9e8" font-family="Arial, sans-serif" font-size="11" text-anchor="middle">PIP3</text></g><g transform="translate(-10.439 225.759)"><rect x="-28" y="-17" width="56" height="34" rx="9" fill="#14382b" stroke="#8be7aa" stroke-width="2"/><text y="35" fill="#dff9e8" font-family="Arial, sans-serif" font-size="11" text-anchor="middle">PTEN</text></g><g transform="translate(-144.800 -173.519)"><rect x="-28" y="-17" width="56" height="34" rx="9" fill="#14382b" stroke="#8be7aa" stroke-width="2"/><text y="35" fill="#dff9e8" font-family="Arial, sans-serif" font-size="11" text-anchor="middle">RHEB</text></g><g transform="translate(223.982 30.136)"><rect x="-28" y="-17" width="56" height="34" rx="9" fill="#14382b" stroke="#8be7aa" stroke-width="2"/><text y="35" fill="#dff9e8" font-family="Arial, sans-serif" font-size="11" text-anchor="middle">RHEBL1</text></g><g transform="translate(-185.514 129.076)"><rect x="-28" y="-17" width="56" height="34" rx="9" fill="#14382b" stroke="#8be7aa" stroke-width="2"/><text y="35" fill="#dff9e8" font-family="Arial, sans-serif" font-size="11" text-anchor="middle">TBC1D1</text></g><g transform="translate(49.603 -220.489)"><rect x="-28" y="-17" width="56" height="34" rx="9" fill="#14382b" stroke="#8be7aa" stroke-width="2"/><text y="35" fill="#dff9e8" font-family="Arial, sans-serif" font-size="11" text-anchor="middle">TBC1D4</text></g><g transform="translate(112.363 196.088)"><rect x="-28" y="-17" width="56" height="34" rx="9" fill="#14382b" stroke="#8be7aa" stroke-width="2"/><text y="35" fill="#dff9e8" font-family="Arial, sans-serif" font-size="11" text-anchor="middle">TBC1D7</text></g><g transform="translate(-251.511 -80.239)"><rect x="-28" y="-17" width="56" height="34" rx="9" fill="#14382b" stroke="#8be7aa" stroke-width="2"/><text y="35" fill="#dff9e8" font-family="Arial, sans-serif" font-size="11" text-anchor="middle">TSC-COMPLEX</text></g><g transform="translate(239.657 -110.728)"><rect x="-28" y="-17" width="56" height="34" rx="9" fill="#14382b" stroke="#8be7aa" stroke-width="2"/><text y="35" fill="#dff9e8" font-family="Arial, sans-serif" font-size="11" text-anchor="middle">TSC1</text></g><g transform="translate(-101.920 243.533)"><rect x="-28" y="-17" width="56" height="34" rx="9" fill="#14382b" stroke="#8be7aa" stroke-width="2"/><text y="35" fill="#dff9e8" font-family="Arial, sans-serif" font-size="11" text-anchor="middle">TSC2</text></g><g transform="translate(-89.351 -248.420)"><rect x="-28" y="-17" width="56" height="34" rx="9" fill="#14382b" stroke="#8be7aa" stroke-width="2"/><text y="35" fill="#dff9e8" font-family="Arial, sans-serif" font-size="11" text-anchor="middle">YWHAE</text></g><g transform="translate(233.690 122.821)"><rect x="-28" y="-17" width="56" height="34" rx="9" fill="#14382b" stroke="#8be7aa" stroke-width="2"/><text y="35" fill="#dff9e8" font-family="Arial, sans-serif" font-size="11" text-anchor="middle">YWHAZ</text></g></svg>
