<svg xmlns="http://www.w3.org/2000/svg" viewBox="-323.416 -282.441 619.380 570.198" role="img"><title>Energy and stress sensing</title><defs><marker id="arrow" markerHeight="7" markerWidth="7" orient="auto" refX="6" refY="3.5"><path d="M0,0 L7,3.5 L0,7 z" fill="#547e70"/></marker><marker id="tee" markerHeight="9" markerWidth="7" orient="auto" refX="6" refY="4.5"><path d="M6,0 L6,9" fill="none" stroke="#ff6b6b" stroke-width="2"/></marker></defs><rect x="-10000" y="-10000" width="20000" height="20000" fill="#08130f"/><path d="M 76.000 0.000 L -84.060 77.006" fill="none" stroke="#547e70" stroke-width="2" marker-end="url(#arrow)"/><path d="M 50.042 -222.441 L -84.060 77.006" fill="none" stroke="#547e70" stroke-width="2" marker-end="url(#arrow)"/><path d="M 50.042 -222.441 L 113.357 197.823" fill="none" stroke="#547e70" stroke-width="2" stroke-dasharray="8 7"/><path d="M 113.357 197.823 L 128.251 -81.583" fill="none" stroke="#547e70" stroke-width="2" stroke-dasharray="8 7"/><path d="M 174.340 146.934 L 161.613 -160.827" fill="none" stroke="#547e70" stroke-width="2" stroke-dasharray="8 7"/><path d="M 174.340 146.934 L -146.082 -175.055" fill="none" stroke="#547e70" stroke-width="2" stroke-dasharray="8 7"/><path d="M 76.000 0.000 L -146.082 -175.055" fill="none" stroke="#547e70" stroke-width="2" marker-end="url(#arrow)"/><path d="M 76.000 0.000 L 225.964 30.403" fill="none" stroke="#547e70" stroke-width="2" marker-end="url(#arrow)"/><path d="M -109.275 155.432 L -70.058 -134.892" fill="none" stroke="#547e70" stroke-width="2" marker-end="url(#arrow)"/><path d="M 56.864 181.291 L -164.390 -95.267" fill="none" stroke="#547e70" stroke-width="2" marker-end="url(#arrow)"/><path d="M -39.460 146.789 L -84.060 77.006" fill="none" stroke="#547e70" stroke-width="2" marker-end="url(#arrow)"/><path d="M -84.060 77.006 L -24.417 -188.425" fill="none" stroke="#547e70" stroke-width="2" marker-end="url(#tee)"/><path d="M -109.275 155.432 L 185.568 -40.797" fill="none" stroke="#547e70" stroke-width="2" marker-end="url(#arrow)"/><path d="M 185.568 -40.797 L -70.058 -134.892" fill="none" stroke="#547e70" stroke-width="2" marker-end="url(#arrow)"/><path d="M 142.777 52.142 L -253.416 -80.847" fill="none" stroke="#547e70" stroke-width="2" marker-end="url(#arrow)"/><path d="M 56.864 181.291 L 80.531 -172.090" fill="none" stroke="#547e70" stroke-width="2" marker-end="url(#arrow)"/><path d="M 80.531 -172.090 L 9.967 -113.563" fill="none" stroke="#547e70" stroke-width="2" marker-end="url(#arrow)"/><path d="M 9.967 -113.563 L -70.058 -134.892" fill="none" stroke="#547e70" stroke-width="2" marker-end="url(#arrow)"/><g transform="translate(76.000 0.000)"><rect x="-28" y="-17" width="56" height="34" rx="9" fill="#14382b" stroke="#8be7aa" stroke-width="2"/><text y="35" fill="#dff9e8" font-family="Arial, sans-serif" font-size="11" text-anchor="middle">AMP</text></g><g transform="translate(-84.060 77.006)"><rect x="-28" y="-17" width="56" height="34" rx="9" fill="#14382b" stroke="#8be7aa" stroke-width="2"/><text y="35" fill="#dff9e8" font-family="Arial, sans-serif" font-size="11" text-anchor="middle">AMPK</text></g><g transform="translate(9.967 -113.563)"><rect x="-28" y="-17" width="56" height="34" rx="9" fill="#14382b" stroke="#8be7aa" stroke-width="2"/><text y="35" fill="#dff9e8" font-family="Arial, sans-serif" font-size="11" text-anchor="middle">ATF4</text></g><g transform="translate(69.362 90.470)"><rect x="-28" y="-17" width="56" height="34" rx="9" fill="#14382b" stroke="#8be7aa" stroke-width="2"/><text y="35" fill="#dff9e8" font-family="Arial, sans-serif" font-size="11" text-anchor="middle">ATP</text></g><g transform="translate(-149.676 -26.476)"><rect x="-28" y="-17" width="56" height="34" rx="9" fill="#14382b" stroke="#8be7aa" stroke-width="2"/><text y="35" fill="#dff9e8" font-family="Arial, sans-serif" font-size="11" text-anchor="middle">BNIP3</text></g><g transform="translate(128.251 -81.583)"><rect x="-28" y="-17" width="56" height="34" rx="9" fill="#14382b" stroke="#8be7aa" stroke-width="2"/><text y="35" fill="#dff9e8" font-family="Arial, sans-serif" font-size="11" text-anchor="middle">CAB39</text></g><g transform="translate(-39.460 146.789)"><rect x="-28" y="-17" width="56" height="34" rx="9" fill="#14382b" stroke="#8be7aa" stroke-width="2"/><text y="35" fill="#dff9e8" font-family="Arial, sans-serif" font-size="11" text-anchor="middle">CAMKK2</text></g><g transform="translate(-70.058 -134.892)"><rect x="-28" y="-17" width="56" height="34" rx="9" fill="#14382b" stroke="#8be7aa" stroke-width="2"/><text y="35" fill="#dff9e8" font-family="Arial, sans-serif" font-size="11" text-anchor="middle">DDIT4</text></g><g transform="translate(142.777 52.142)"><rect x="-28" y="-17" width="56" height="34" rx="9" fill="#14382b" stroke="#8be7aa" stroke-width="2"/><text y="35" fill="#dff9e8" font-family="Arial, sans-serif" font-size="11" text-anchor="middle">DNA-DAMAGE</text></g><g transform="translate(-175.626 72.496)"><rect x="-28" y="-17" width="56" height="34" rx="9" fill="#14382b" stroke="#8be7aa" stroke-width="2"/><text y="35" fill="#dff9e8" font-family="Arial, sans-serif" font-size="11" text-anchor="middle">EIF2AK1</text></g><g transform="translate(80.531 -172.090)"><rect x="-28" y="-17" width="56" height="34" rx="9" fill="#14382b" stroke="#8be7aa" stroke-width="2"/><text y="35" fill="#dff9e8" font-family="Arial, sans-serif" font-size="11" text-anchor="middle">EIF2AK3</text></g><g transform="translate(56.864 181.291)"><rect x="-28" y="-17" width="56" height="34" rx="9" fill="#14382b" stroke="#8be7aa" stroke-width="2"/><text y="35" fill="#dff9e8" font-family="Arial, sans-serif" font-size="11" text-anchor="middle">ER-STRESS</text></g><g transform="translate(-164.390 -95.267)"><rect x="-28" y="-17" width="56" height="34" rx="9" fill="#14382b" stroke="#8be7aa" stroke-width="2"/><text y="35" fill="#dff9e8" font-family="Arial, sans-serif" font-size="11" text-anchor="middle">ERN1</text></g><g transform="translate(185.568 -40.797)"><rect x="-28" y="-17" width="56" height="34" rx="9" fill="#14382b" stroke="#8be7aa" stroke-width="2"/><text y="35" fill="#dff9e8" font-family="Arial, sans-serif" font-size="11" text-anchor="middle">HIF1A</text></g><g transform="translate(-109.275 155.432)"><rect x="-28" y="-17" width="56" height="34" rx="9" fill="#14382b" stroke="#8be7aa" stroke-width="2"/><text y="35" fill="#dff9e8" font-family="Arial, sans-serif" font-size="11" text-anchor="middle">HYPOXIA</text></g><g transform="translate(-24.417 -188.425)"><rect x="-28" y="-17" width="56" height="34" rx="9" fill="#14382b" stroke="#8be7aa" stroke-width="2"/><text y="35" fill="#dff9e8" font-family="Arial, sans-serif" font-size="11" text-anchor="middle">MTORC1</text></g><g transform="translate(174.340 146.934)"><rect x="-28" y="-17" width="56" height="34" rx="9" fill="#14382b" stroke="#8be7aa" stroke-width="2"/><text y="35" fill="#dff9e8" font-family="Arial, sans-serif" font-size="11" text-anchor="middle">PRKAA1</text></g><g transform="translate(-227.805 9.420)"><rect x="-28" y="-17" width="56" height="34" rx="9" fill="#14382b" stroke="#8be7aa" stroke-width="2"/><text y="35" fill="#dff9e8" font-family="Arial, sans-serif" font-size="11" text-anchor="middle">PRKAA2</text></g><g transform="translate(161.613 -160.827)"><rect x="-28" y="-17" width="56" height="34" rx="9" fill="#14382b" stroke="#8be7aa" stroke-width="2"/><text y="35" fill="#dff9e8" font-family="Arial, sans-serif" font-size="11" text-anchor="middle">PRKAB1</text></g><g transform="translate(-10.532 227.757)"><rect x="-28" y="-17" width="56" height="34" rx="9" fill="#14382b" stroke="#8be7aa" stroke-width="2"/><text y="35" fill="#dff9e8" font-family="Arial, sans-serif" font-size="11" text-anchor="middle">PRKAB2</text></g><g transform="translate(-146.082 -175.055)"><rect x="-28" y="-17" width="56" height="34" rx="9" fill="#14382b" stroke="#8be7aa" stroke-width="2"/><text y="35" fill="#dff9e8" font-family="Arial, sans-serif" font-size="11" text-anchor="middle">PRKAG1</text></g><g transform="translate(225.964 30.403)"><rect x="-28" y="-17" width="56" height="34" rx="9" fill="#14382b" stroke="#8be7aa" stroke-width="2"/><text y="35" fill="#dff9e8" font-family="Arial, sans-serif" font-size="11" text-anchor="middle">PRKAG2</text></g><g transform="translate(-187.156 130.218)"><rect x="-28" y="-17" width="56" height="34" rx="9" fill="#14382b" stroke="#8be7aa" stroke-width="2"/><text y="35" fill="#dff9e8" font-family="Arial, sans-serif" font-size="11" text-anchor="middle">PRKAG3</text></g><g transform="translate(50.042 -222.441)"><rect x="-28" y="-17" width="56" height="34" rx="9" fill="#14382b" stroke="#8be7aa" stroke-width="2"/><text y="35" fill="#dff9e8" font-family="Arial, sans-serif" font-size="11" text-anchor="middle">STK11</text></g><g transform="translate(113.357 197.823)"><rect x="-28" y="-17" width="56" height="34" rx="9" fill="#14382b" stroke="#8be7aa" stroke-width="2"/><text y="35" fill="#dff9e8" font-family="Arial, sans-serif" font-size="11" text-anchor="middle">STRADA</text></g><g transform="translate(-253.416 -80.847)"><rect x="-28" y="-17" width="56" height="34" rx="9" fill="#14382b" stroke="#8be7aa" stroke-width="2"/><text y="35" fill="#dff9e8" font-family="Arial, sans-serif" font-size="11" text-anchor="middle">TP53</text></g></svg>
