<svg xmlns="http://www.w3.org/2000/svg" viewBox="-428.197 -398.719 839.751 800.492" role="img"><title>Feedback and crosstalk</title><defs><marker id="arrow" markerHeight="7" markerWidth="7" orient="auto" refX="6" refY="3.5"><path d="M0,0 L7,3.5 L0,7 z" fill="#547e70"/></marker><marker id="tee" markerHeight="9" markerWidth="7" orient="auto" refX="6" refY="4.5"><path d="M6,0 L6,9" fill="none" stroke="#ff6b6b" stroke-width="2"/></marker></defs><rect x="-10000" y="-10000" width="20000" height="20000" fill="#08130f"/><path d="M -210.306 -162.873 L 161.613 -160.827" fill="none" stroke="#547e70" stroke-width="2" marker-end="url(#arrow)"/><path d="M 76.000 0.000 L -10.532 227.757" fill="none" stroke="#547e70" stroke-width="2" marker-end="url(#arrow)"/><path d="M 278.814 198.057 L -102.692 245.378" fill="none" stroke="#547e70" stroke-width="2" marker-end="url(#arrow)"/><path d="M 278.814 198.057 L -90.028 -250.302" fill="none" stroke="#547e70" stroke-width="2" marker-end="url(#arrow)"/><path d="M -102.692 245.378 L -257.214 67.801" fill="none" stroke="#547e70" stroke-width="2" marker-end="url(#arrow)"/><path d="M -90.028 -250.302 L 143.863 -223.740" fill="none" stroke="#547e70" stroke-width="2" marker-end="url(#arrow)"/><path d="M 47.258 -338.719 L -210.306 -162.873" fill="none" stroke="#547e70" stroke-width="2" marker-end="url(#arrow)"/><path d="M -274.711 -130.191 L -210.306 -162.873" fill="none" stroke="#547e70" stroke-width="2" marker-end="url(#arrow)"/><path d="M -153.709 262.277 L -210.306 -162.873" fill="none" stroke="#547e70" stroke-width="2" marker-end="url(#arrow)"/><path d="M -71.804 -334.377 L -210.306 -162.873" fill="none" stroke="#547e70" stroke-width="2" marker-end="url(#arrow)"/><path d="M -84.060 77.006 L -210.306 -162.873" fill="none" stroke="#547e70" stroke-width="2" marker-end="url(#arrow)"/><path d="M 265.092 -21.962 L -210.306 -162.873" fill="none" stroke="#547e70" stroke-width="2" marker-end="url(#arrow)"/><path d="M 314.838 133.570 L -10.532 227.757" fill="none" stroke="#547e70" stroke-width="2" marker-end="url(#tee)"/><path d="M 341.554 17.464 L -210.306 -162.873" fill="none" stroke="#547e70" stroke-width="2" marker-end="url(#arrow)"/><path d="M 56.864 181.291 L -210.306 -162.873" fill="none" stroke="#547e70" stroke-width="2" marker-end="url(#arrow)"/><path d="M -263.648 217.839 L -210.306 -162.873" fill="none" stroke="#547e70" stroke-width="2" marker-end="url(#arrow)"/><path d="M 50.042 -222.441 L -210.306 -162.873" fill="none" stroke="#547e70" stroke-width="2" marker-end="url(#arrow)"/><path d="M -10.532 227.757 L 142.777 52.142" fill="none" stroke="#547e70" stroke-width="2" marker-end="url(#tee)"/><path d="M -141.926 -311.161 L 113.357 197.823" fill="none" stroke="#547e70" stroke-width="2" marker-end="url(#arrow)"/><path d="M -146.082 -175.055 L 45.054 262.157" fill="none" stroke="#547e70" stroke-width="2" marker-end="url(#arrow)"/><path d="M -302.703 -28.054 L 242.154 -183.786" fill="none" stroke="#547e70" stroke-width="2" marker-end="url(#arrow)"/><path d="M 185.568 -40.797 L -109.275 155.432" fill="none" stroke="#547e70" stroke-width="2" marker-end="url(#arrow)"/><path d="M 204.253 225.159 L 80.531 -172.090" fill="none" stroke="#547e70" stroke-width="2" marker-end="url(#arrow)"/><path d="M 241.472 -111.566 L 278.814 198.057" fill="none" stroke="#547e70" stroke-width="2" marker-end="url(#arrow)"/><g transform="translate(76.000 0.000)"><rect x="-28" y="-17" width="56" height="34" rx="9" fill="#14382b" stroke="#8be7aa" stroke-width="2"/><text y="35" fill="#dff9e8" font-family="Arial, sans-serif" font-size="11" text-anchor="middle">AKT1</text></g><g transform="translate(-84.060 77.006)"><rect x="-28" y="-17" width="56" height="34" rx="9" fill="#14382b" stroke="#8be7aa" stroke-width="2"/><text y="35" fill="#dff9e8" font-family="Arial, sans-serif" font-size="11" text-anchor="middle">ARL8B</text></g><g transform="translate(9.967 -113.563)"><rect x="-28" y="-17" width="56" height="34" rx="9" fill="#14382b" stroke="#8be7aa" stroke-width="2"/><text y="35" fill="#dff9e8" font-family="Arial, sans-serif" font-size="11" text-anchor="middle">BTRC</text></g><g transform="translate(69.362 90.470)"><rect x="-28" y="-17" width="56" height="34" rx="9" fill="#14382b" stroke="#8be7aa" stroke-width="2"/><text y="35" fill="#dff9e8" font-family="Arial, sans-serif" font-size="11" text-anchor="middle">CCND1</text></g><g transform="translate(-149.676 -26.476)"><rect x="-28" y="-17" width="56" height="34" rx="9" fill="#14382b" stroke="#8be7aa" stroke-width="2"/><text y="35" fill="#dff9e8" font-family="Arial, sans-serif" font-size="11" text-anchor="middle">CCNE1</text></g><g transform="translate(128.251 -81.583)"><rect x="-28" y="-17" width="56" height="34" rx="9" fill="#14382b" stroke="#8be7aa" stroke-width="2"/><text y="35" fill="#dff9e8" font-family="Arial, sans-serif" font-size="11" text-anchor="middle">CDK1</text></g><g transform="translate(-39.460 146.789)"><rect x="-28" y="-17" width="56" height="34" rx="9" fill="#14382b" stroke="#8be7aa" stroke-width="2"/><text y="35" fill="#dff9e8" font-family="Arial, sans-serif" font-size="11" text-anchor="middle">CDK4</text></g><g transform="translate(-70.058 -134.892)"><rect x="-28" y="-17" width="56" height="34" rx="9" fill="#14382b" stroke="#8be7aa" stroke-width="2"/><text y="35" fill="#dff9e8" font-family="Arial, sans-serif" font-size="11" text-anchor="middle">CDK6</text></g><g transform="translate(142.777 52.142)"><rect x="-28" y="-17" width="56" height="34" rx="9" fill="#14382b" stroke="#8be7aa" stroke-width="2"/><text y="35" fill="#dff9e8" font-family="Arial, sans-serif" font-size="11" text-anchor="middle">CTNNB1</text></g><g transform="translate(-175.626 72.496)"><rect x="-28" y="-17" width="56" height="34" rx="9" fill="#14382b" stroke="#8be7aa" stroke-width="2"/><text y="35" fill="#dff9e8" font-family="Arial, sans-serif" font-size="11" text-anchor="middle">CUL1</text></g><g transform="translate(80.531 -172.090)"><rect x="-28" y="-17" width="56" height="34" rx="9" fill="#14382b" stroke="#8be7aa" stroke-width="2"/><text y="35" fill="#dff9e8" font-family="Arial, sans-serif" font-size="11" text-anchor="middle">ERBB2</text></g><g transform="translate(56.864 181.291)"><rect x="-28" y="-17" width="56" height="34" rx="9" fill="#14382b" stroke="#8be7aa" stroke-width="2"/><text y="35" fill="#dff9e8" font-family="Arial, sans-serif" font-size="11" text-anchor="middle">ESR1</text></g><g transform="translate(-164.390 -95.267)"><rect x="-28" y="-17" width="56" height="34" rx="9" fill="#14382b" stroke="#8be7aa" stroke-width="2"/><text y="35" fill="#dff9e8" font-family="Arial, sans-serif" font-size="11" text-anchor="middle">FBXW11</text></g><g transform="translate(185.568 -40.797)"><rect x="-28" y="-17" width="56" height="34" rx="9" fill="#14382b" stroke="#8be7aa" stroke-width="2"/><text y="35" fill="#dff9e8" font-family="Arial, sans-serif" font-size="11" text-anchor="middle">FGF2</text></g><g transform="translate(-109.275 155.432)"><rect x="-28" y="-17" width="56" height="34" rx="9" fill="#14382b" stroke="#8be7aa" stroke-width="2"/><text y="35" fill="#dff9e8" font-family="Arial, sans-serif" font-size="11" text-anchor="middle">FGFR1</text></g><g transform="translate(-24.417 -188.425)"><rect x="-28" y="-17" width="56" height="34" rx="9" fill="#14382b" stroke="#8be7aa" stroke-width="2"/><text y="35" fill="#dff9e8" font-family="Arial, sans-serif" font-size="11" text-anchor="middle">FOXK1</text></g><g transform="translate(174.340 146.934)"><rect x="-28" y="-17" width="56" height="34" rx="9" fill="#14382b" stroke="#8be7aa" stroke-width="2"/><text y="35" fill="#dff9e8" font-family="Arial, sans-serif" font-size="11" text-anchor="middle">FOXK2</text></g><g transform="translate(-227.805 9.420)"><rect x="-28" y="-17" width="56" height="34" rx="9" fill="#14382b" stroke="#8be7aa" stroke-width="2"/><text y="35" fill="#dff9e8" font-family="Arial, sans-serif" font-size="11" text-anchor="middle">FZD1</text></g><g transform="translate(161.613 -160.827)"><rect x="-28" y="-17" width="56" height="34" rx="9" fill="#14382b" stroke="#8be7aa" stroke-width="2"/><text y="35" fill="#dff9e8" font-family="Arial, sans-serif" font-size="11" text-anchor="middle">GRB10</text></g><g transform="translate(-10.532 227.757)"><rect x="-28" y="-17" width="56" height="34" rx="9" fill="#14382b" stroke="#8be7aa" stroke-width="2"/><text y="35" fill="#dff9e8" font-family="Arial, sans-serif" font-size="11" text-anchor="middle">GSK3B</text></g><g transform="translate(-146.082 -175.055)"><rect x="-28" y="-17" width="56" height="34" rx="9" fill="#14382b" stroke="#8be7aa" stroke-width="2"/><text y="35" fill="#dff9e8" font-family="Arial, sans-serif" font-size="11" text-anchor="middle">HGF</text></g><g transform="translate(225.964 30.403)"><rect x="-28" y="-17" width="56" height="34" rx="9" fill="#14382b" stroke="#8be7aa" stroke-width="2"/><text y="35" fill="#dff9e8" font-family="Arial, sans-serif" font-size="11" text-anchor="middle">HRAS</text></g><g transform="translate(-187.156 130.218)"><rect x="-28" y="-17" width="56" height="34" rx="9" fill="#14382b" stroke="#8be7aa" stroke-width="2"/><text y="35" fill="#dff9e8" font-family="Arial, sans-serif" font-size="11" text-anchor="middle">IKBKB</text></g><g transform="translate(50.042 -222.441)"><rect x="-28" y="-17" width="56" height="34" rx="9" fill="#14382b" stroke="#8be7aa" stroke-width="2"/><text y="35" fill="#dff9e8" font-family="Arial, sans-serif" font-size="11" text-anchor="middle">IKBKE</text></g><g transform="translate(113.357 197.823)"><rect x="-28" y="-17" width="56" height="34" rx="9" fill="#14382b" stroke="#8be7aa" stroke-width="2"/><text y="35" fill="#dff9e8" font-family="Arial, sans-serif" font-size="11" text-anchor="middle">KDR</text></g><g transform="translate(-253.416 -80.847)"><rect x="-28" y="-17" width="56" height="34" rx="9" fill="#14382b" stroke="#8be7aa" stroke-width="2"/><text y="35" fill="#dff9e8" font-family="Arial, sans-serif" font-size="11" text-anchor="middle">KLHL22</text></g><g transform="translate(241.472 -111.566)"><rect x="-28" y="-17" width="56" height="34" rx="9" fill="#14382b" stroke="#8be7aa" stroke-width="2"/><text y="35" fill="#dff9e8" font-family="Arial, sans-serif" font-size="11" text-anchor="middle">KRAS</text></g><g transform="translate(-102.692 245.378)"><rect x="-28" y="-17" width="56" height="34" rx="9" fill="#14382b" stroke="#8be7aa" stroke-width="2"/><text y="35" fill="#dff9e8" font-family="Arial, sans-serif" font-size="11" text-anchor="middle">MAP2K1</text></g><g transform="translate(-90.028 -250.302)"><rect x="-28" y="-17" width="56" height="34" rx="9" fill="#14382b" stroke="#8be7aa" stroke-width="2"/><text y="35" fill="#dff9e8" font-family="Arial, sans-serif" font-size="11" text-anchor="middle">MAP2K2</text></g><g transform="translate(235.460 123.751)"><rect x="-28" y="-17" width="56" height="34" rx="9" fill="#14382b" stroke="#8be7aa" stroke-width="2"/><text y="35" fill="#dff9e8" font-family="Arial, sans-serif" font-size="11" text-anchor="middle">MAP3K7</text></g><g transform="translate(-257.214 67.801)"><rect x="-28" y="-17" width="56" height="34" rx="9" fill="#14382b" stroke="#8be7aa" stroke-width="2"/><text y="35" fill="#dff9e8" font-family="Arial, sans-serif" font-size="11" text-anchor="middle">MAPK1</text></g><g transform="translate(143.863 -223.740)"><rect x="-28" y="-17" width="56" height="34" rx="9" fill="#14382b" stroke="#8be7aa" stroke-width="2"/><text y="35" fill="#dff9e8" font-family="Arial, sans-serif" font-size="11" text-anchor="middle">MAPK3</text></g><g transform="translate(45.054 262.157)"><rect x="-28" y="-17" width="56" height="34" rx="9" fill="#14382b" stroke="#8be7aa" stroke-width="2"/><text y="35" fill="#dff9e8" font-family="Arial, sans-serif" font-size="11" text-anchor="middle">MET</text></g><g transform="translate(-210.306 -162.873)"><rect x="-28" y="-17" width="56" height="34" rx="9" fill="#14382b" stroke="#8be7aa" stroke-width="2"/><text y="35" fill="#dff9e8" font-family="Arial, sans-serif" font-size="11" text-anchor="middle">MTORC1</text></g><g transform="translate(265.092 -21.962)"><rect x="-28" y="-17" width="56" height="34" rx="9" fill="#14382b" stroke="#8be7aa" stroke-width="2"/><text y="35" fill="#dff9e8" font-family="Arial, sans-serif" font-size="11" text-anchor="middle">MYC</text></g><g transform="translate(-180.635 195.261)"><rect x="-28" y="-17" width="56" height="34" rx="9" fill="#14382b" stroke="#8be7aa" stroke-width="2"/><text y="35" fill="#dff9e8" font-family="Arial, sans-serif" font-size="11" text-anchor="middle">NFKBIA</text></g><g transform="translate(1.483 -303.996)"><rect x="-28" y="-17" width="56" height="34" rx="9" fill="#14382b" stroke="#8be7aa" stroke-width="2"/><text y="35" fill="#dff9e8" font-family="Arial, sans-serif" font-size="11" text-anchor="middle">NRAS</text></g><g transform="translate(204.253 225.159)"><rect x="-28" y="-17" width="56" height="34" rx="9" fill="#14382b" stroke="#8be7aa" stroke-width="2"/><text y="35" fill="#dff9e8" font-family="Arial, sans-serif" font-size="11" text-anchor="middle">NRG1</text></g><g transform="translate(-302.703 -28.054)"><rect x="-28" y="-17" width="56" height="34" rx="9" fill="#14382b" stroke="#8be7aa" stroke-width="2"/><text y="35" fill="#dff9e8" font-family="Arial, sans-serif" font-size="11" text-anchor="middle">PDGFB</text></g><g transform="translate(242.154 -183.786)"><rect x="-28" y="-17" width="56" height="34" rx="9" fill="#14382b" stroke="#8be7aa" stroke-width="2"/><text y="35" fill="#dff9e8" font-family="Arial, sans-serif" font-size="11" text-anchor="middle">PDGFRB</text></g><g transform="translate(-54.411 299.091)"><rect x="-28" y="-17" width="56" height="34" rx="9" fill="#14382b" stroke="#8be7aa" stroke-width="2"/><text y="35" fill="#dff9e8" font-family="Arial, sans-serif" font-size="11" text-anchor="middle">PPARGC1A</text></g><g transform="translate(-161.912 -257.295)"><rect x="-28" y="-17" width="56" height="34" rx="9" fill="#14382b" stroke="#8be7aa" stroke-width="2"/><text y="35" fill="#dff9e8" font-family="Arial, sans-serif" font-size="11" text-anchor="middle">PPP2CA</text></g><g transform="translate(293.189 80.351)"><rect x="-28" y="-17" width="56" height="34" rx="9" fill="#14382b" stroke="#8be7aa" stroke-width="2"/><text y="35" fill="#dff9e8" font-family="Arial, sans-serif" font-size="11" text-anchor="middle">PPP2CB</text></g><g transform="translate(-270.465 138.798)"><rect x="-28" y="-17" width="56" height="34" rx="9" fill="#14382b" stroke="#8be7aa" stroke-width="2"/><text y="35" fill="#dff9e8" font-family="Arial, sans-serif" font-size="11" text-anchor="middle">PPP2R1A</text></g><g transform="translate(105.676 -285.042)"><rect x="-28" y="-17" width="56" height="34" rx="9" fill="#14382b" stroke="#8be7aa" stroke-width="2"/><text y="35" fill="#dff9e8" font-family="Arial, sans-serif" font-size="11" text-anchor="middle">PPP2R2A</text></g><g transform="translate(114.621 281.564)"><rect x="-28" y="-17" width="56" height="34" rx="9" fill="#14382b" stroke="#8be7aa" stroke-width="2"/><text y="35" fill="#dff9e8" font-family="Arial, sans-serif" font-size="11" text-anchor="middle">RAB11A</text></g><g transform="translate(-274.711 -130.191)"><rect x="-28" y="-17" width="56" height="34" rx="9" fill="#14382b" stroke="#8be7aa" stroke-width="2"/><text y="35" fill="#dff9e8" font-family="Arial, sans-serif" font-size="11" text-anchor="middle">RAB1A</text></g><g transform="translate(290.506 -89.566)"><rect x="-28" y="-17" width="56" height="34" rx="9" fill="#14382b" stroke="#8be7aa" stroke-width="2"/><text y="35" fill="#dff9e8" font-family="Arial, sans-serif" font-size="11" text-anchor="middle">RAB34</text></g><g transform="translate(-153.709 262.277)"><rect x="-28" y="-17" width="56" height="34" rx="9" fill="#14382b" stroke="#8be7aa" stroke-width="2"/><text y="35" fill="#dff9e8" font-family="Arial, sans-serif" font-size="11" text-anchor="middle">RAB5A</text></g><g transform="translate(-71.804 -334.377)"><rect x="-28" y="-17" width="56" height="34" rx="9" fill="#14382b" stroke="#8be7aa" stroke-width="2"/><text y="35" fill="#dff9e8" font-family="Arial, sans-serif" font-size="11" text-anchor="middle">RAB7A</text></g><g transform="translate(278.814 198.057)"><rect x="-28" y="-17" width="56" height="34" rx="9" fill="#14382b" stroke="#8be7aa" stroke-width="2"/><text y="35" fill="#dff9e8" font-family="Arial, sans-serif" font-size="11" text-anchor="middle">RAF1</text></g><g transform="translate(-339.375 42.296)"><rect x="-28" y="-17" width="56" height="34" rx="9" fill="#14382b" stroke="#8be7aa" stroke-width="2"/><text y="35" fill="#dff9e8" font-family="Arial, sans-serif" font-size="11" text-anchor="middle">RELA</text></g><g transform="translate(221.674 -260.432)"><rect x="-28" y="-17" width="56" height="34" rx="9" fill="#14382b" stroke="#8be7aa" stroke-width="2"/><text y="35" fill="#dff9e8" font-family="Arial, sans-serif" font-size="11" text-anchor="middle">RHOQ</text></g><g transform="translate(12.464 341.773)"><rect x="-28" y="-17" width="56" height="34" rx="9" fill="#14382b" stroke="#8be7aa" stroke-width="2"/><text y="35" fill="#dff9e8" font-family="Arial, sans-serif" font-size="11" text-anchor="middle">RNF152</text></g><g transform="translate(-240.054 -243.594)"><rect x="-28" y="-17" width="56" height="34" rx="9" fill="#14382b" stroke="#8be7aa" stroke-width="2"/><text y="35" fill="#dff9e8" font-family="Arial, sans-serif" font-size="11" text-anchor="middle">SKP2</text></g><g transform="translate(341.554 17.464)"><rect x="-28" y="-17" width="56" height="34" rx="9" fill="#14382b" stroke="#8be7aa" stroke-width="2"/><text y="35" fill="#dff9e8" font-family="Arial, sans-serif" font-size="11" text-anchor="middle">STAT3</text></g><g transform="translate(-263.648 217.839)"><rect x="-28" y="-17" width="56" height="34" rx="9" fill="#14382b" stroke="#8be7aa" stroke-width="2"/><text y="35" fill="#dff9e8" font-family="Arial, sans-serif" font-size="11" text-anchor="middle">TBK1</text></g><g transform="translate(47.258 -338.719)"><rect x="-28" y="-17" width="56" height="34" rx="9" fill="#14382b" stroke="#8be7aa" stroke-width="2"/><text y="35" fill="#dff9e8" font-family="Arial, sans-serif" font-size="11" text-anchor="middle">TRAF6</text></g><g transform="translate(193.955 281.683)"><rect x="-28" y="-17" width="56" height="34" rx="9" fill="#14382b" stroke="#8be7aa" stroke-width="2"/><text y="35" fill="#dff9e8" font-family="Arial, sans-serif" font-size="11" text-anchor="middle">TSC22D1</text></g><g transform="translate(-333.291 -76.689)"><rect x="-28" y="-17" width="56" height="34" rx="9" fill="#14382b" stroke="#8be7aa" stroke-width="2"/><text y="35" fill="#dff9e8" font-family="Arial, sans-serif" font-size="11" text-anchor="middle">UBE2D1</text></g><g transform="translate(297.561 -168.586)"><rect x="-28" y="-17" width="56" height="34" rx="9" fill="#14382b" stroke="#8be7aa" stroke-width="2"/><text y="35" fill="#dff9e8" font-family="Arial, sans-serif" font-size="11" text-anchor="middle">UBE2D2</text></g><g transform="translate(-105.534 325.310)"><rect x="-28" y="-17" width="56" height="34" rx="9" fill="#14382b" stroke="#8be7aa" stroke-width="2"/><text y="35" fill="#dff9e8" font-family="Arial, sans-serif" font-size="11" text-anchor="middle">UBE2D3</text></g><g transform="translate(-141.926 -311.161)"><rect x="-28" y="-17" width="56" height="34" rx="9" fill="#14382b" stroke="#8be7aa" stroke-width="2"/><text y="35" fill="#dff9e8" font-family="Arial, sans-serif" font-size="11" text-anchor="middle">VEGFA</text></g><g transform="translate(314.838 133.570)"><rect x="-28" y="-17" width="56" height="34" rx="9" fill="#14382b" stroke="#8be7aa" stroke-width="2"/><text y="35" fill="#dff9e8" font-family="Arial, sans-serif" font-size="11" text-anchor="middle">WNT3A</text></g><g transform="translate(-358.197 126.866)"><rect x="-28" y="-17" width="56" height="34" rx="9" fill="#14382b" stroke="#8be7aa" stroke-width="2"/><text y="35" fill="#dff9e8" font-family="Arial, sans-serif" font-size="11" text-anchor="middle">WWTR1</text></g><g transform="translate(178.427 -335.506)"><rect x="-28" y="-17" width="56" height="34" rx="9" fill="#14382b" stroke="#8be7aa" stroke-width="2"/><text y="35" fill="#dff9e8" font-family="Arial, sans-serif" font-size="11" text-anchor="middle">YAP1</text></g></svg>
