<svg xmlns="http://www.w3.org/2000/svg" viewBox="0 0 1280 650" role="img"><title>mTOR-NEXUS atlas summary chart</title><rect width="1280" height="650" fill="#08130f"/><text x="70" y="65" fill="#dff9e8" font-family="Arial, sans-serif" font-size="34" font-weight="bold">mTOR-NEXUS atlas summary</text><text x="70" y="103" fill="#a9c9bc" font-family="Arial, sans-serif" font-size="18">263 nodes | 240 evidence-tagged interactions</text><text x="70" y="153" fill="#8be7aa" font-family="Arial, sans-serif" font-size="22" font-weight="bold">Evidence tiers</text><text x="70" y="195" fill="#dff9e8" font-family="Arial, sans-serif" font-size="16">robust</text><rect x="205" y="178" width="330.000" height="20" rx="4" fill="#8be7aa"/><text x="550.000" y="195" fill="#dff9e8" font-family="Arial, sans-serif" font-size="16">123</text><text x="70" y="233" fill="#dff9e8" font-family="Arial, sans-serif" font-size="16">plausible</text><rect x="205" y="216" width="254.878" height="20" rx="4" fill="#8be7aa"/><text x="474.878" y="233" fill="#dff9e8" font-family="Arial, sans-serif" font-size="16">95</text><text x="70" y="271" fill="#dff9e8" font-family="Arial, sans-serif" font-size="16">speculative</text><rect x="205" y="254" width="59.024" height="20" rx="4" fill="#8be7aa"/><text x="279.024" y="271" fill="#dff9e8" font-family="Arial, sans-serif" font-size="16">22</text><text x="650" y="153" fill="#8be7aa" font-family="Arial, sans-serif" font-size="22" font-weight="bold">Interaction mechanisms</text><text x="650" y="195" fill="#dff9e8" font-family="Arial, sans-serif" font-size="16">phosphorylates</text><rect x="785" y="178" width="300.000" height="20" rx="4" fill="#60a5fa"/><text x="1100.000" y="195" fill="#dff9e8" font-family="Arial, sans-serif" font-size="16">74</text><text x="650" y="233" fill="#dff9e8" font-family="Arial, sans-serif" font-size="16">activates</text><rect x="785" y="216" width="214.865" height="20" rx="4" fill="#60a5fa"/><text x="1014.865" y="233" fill="#dff9e8" font-family="Arial, sans-serif" font-size="16">53</text><text x="650" y="271" fill="#dff9e8" font-family="Arial, sans-serif" font-size="16">inhibits</text><rect x="785" y="254" width="182.432" height="20" rx="4" fill="#60a5fa"/><text x="982.432" y="271" fill="#dff9e8" font-family="Arial, sans-serif" font-size="16">45</text><text x="650" y="309" fill="#dff9e8" font-family="Arial, sans-serif" font-size="16">binds</text><rect x="785" y="292" width="109.459" height="20" rx="4" fill="#60a5fa"/><text x="909.459" y="309" fill="#dff9e8" font-family="Arial, sans-serif" font-size="16">27</text><text x="650" y="347" fill="#dff9e8" font-family="Arial, sans-serif" font-size="16">recruits</text><rect x="785" y="330" width="44.595" height="20" rx="4" fill="#60a5fa"/><text x="844.595" y="347" fill="#dff9e8" font-family="Arial, sans-serif" font-size="16">11</text><text x="650" y="385" fill="#dff9e8" font-family="Arial, sans-serif" font-size="16">senses</text><rect x="785" y="368" width="40.541" height="20" rx="4" fill="#60a5fa"/><text x="840.541" y="385" fill="#dff9e8" font-family="Arial, sans-serif" font-size="16">10</text><text x="650" y="423" fill="#dff9e8" font-family="Arial, sans-serif" font-size="16">gap_for</text><rect x="785" y="406" width="24.324" height="20" rx="4" fill="#60a5fa"/><text x="824.324" y="423" fill="#dff9e8" font-family="Arial, sans-serif" font-size="16">6</text><text x="650" y="461" fill="#dff9e8" font-family="Arial, sans-serif" font-size="16">transcribes</text><rect x="785" y="444" width="24.324" height="20" rx="4" fill="#60a5fa"/><text x="824.324" y="461" fill="#dff9e8" font-family="Arial, sans-serif" font-size="16">6</text><text x="650" y="499" fill="#dff9e8" font-family="Arial, sans-serif" font-size="16">ubiquitinates</text><rect x="785" y="482" width="20.270" height="20" rx="4" fill="#60a5fa"/><text x="820.270" y="499" fill="#dff9e8" font-family="Arial, sans-serif" font-size="16">5</text><text x="650" y="537" fill="#dff9e8" font-family="Arial, sans-serif" font-size="16">gef_for</text><rect x="785" y="520" width="8.108" height="20" rx="4" fill="#60a5fa"/><text x="808.108" y="537" fill="#dff9e8" font-family="Arial, sans-serif" font-size="16">2</text><text x="650" y="575" fill="#dff9e8" font-family="Arial, sans-serif" font-size="16">degrades</text><rect x="785" y="558" width="4.054" height="20" rx="4" fill="#60a5fa"/><text x="804.054" y="575" fill="#dff9e8" font-family="Arial, sans-serif" font-size="16">1</text><text x="70" y="610" fill="#a9c9bc" font-family="Arial, sans-serif" font-size="15">Generated deterministically by Python from the committed atlas export.</text></svg>
