<svg xmlns="http://www.w3.org/2000/svg" viewBox="-331.082 -367.996 670.160 694.095" role="img"><title>Protein synthesis and autophagy outputs</title><defs><marker id="arrow" markerHeight="7" markerWidth="7" orient="auto" refX="6" refY="3.5"><path d="M0,0 L7,3.5 L0,7 z" fill="#547e70"/></marker><marker id="tee" markerHeight="9" markerWidth="7" orient="auto" refX="6" refY="4.5"><path d="M6,0 L6,9" fill="none" stroke="#ff6b6b" stroke-width="2"/></marker></defs><rect x="-10000" y="-10000" width="20000" height="20000" fill="#08130f"/><path d="M 229.928 30.937 L 239.001 125.612" fill="none" stroke="#547e70" stroke-width="2" marker-end="url(#arrow)"/><path d="M 229.928 30.937 L -261.082 68.820" fill="none" stroke="#547e70" stroke-width="2" marker-end="url(#arrow)"/><path d="M 229.928 30.937 L -213.468 -165.322" fill="none" stroke="#547e70" stroke-width="2" marker-end="url(#arrow)"/><path d="M 229.928 30.937 L -213.468 -165.322" fill="none" stroke="#547e70" stroke-width="2" marker-end="url(#arrow)"/><path d="M 229.928 30.937 L -213.468 -165.322" fill="none" stroke="#547e70" stroke-width="2" marker-end="url(#arrow)"/><path d="M 229.928 30.937 L 45.732 266.099" fill="none" stroke="#547e70" stroke-width="2" marker-end="url(#arrow)"/><path d="M 269.078 -22.293 L 10.316 -117.548" fill="none" stroke="#547e70" stroke-width="2" marker-end="url(#arrow)"/><path d="M 269.078 -22.293 L -71.901 -138.442" fill="none" stroke="#547e70" stroke-width="2" marker-end="url(#arrow)"/><path d="M 269.078 -22.293 L 71.796 93.645" fill="none" stroke="#547e70" stroke-width="2" marker-end="url(#arrow)"/><path d="M 229.928 30.937 L 10.316 -117.548" fill="none" stroke="#547e70" stroke-width="2" marker-end="url(#arrow)"/><path d="M 229.928 30.937 L 1.503 -307.996" fill="none" stroke="#547e70" stroke-width="2" marker-end="url(#arrow)"/><path d="M -104.236 249.068 L -167.851 -97.273" fill="none" stroke="#547e70" stroke-width="2" marker-end="url(#arrow)"/><path d="M 229.928 30.937 L -111.575 158.704" fill="none" stroke="#547e70" stroke-width="2" marker-end="url(#arrow)"/><path d="M 239.001 125.612 L -167.851 -97.273" fill="none" stroke="#547e70" stroke-width="2" marker-end="url(#arrow)"/><path d="M 239.001 125.612 L 50.920 -226.343" fill="none" stroke="#547e70" stroke-width="2" marker-end="url(#arrow)"/><path d="M 239.001 125.612 L 82.226 -175.712" fill="none" stroke="#547e70" stroke-width="2" marker-end="url(#arrow)"/><path d="M 229.928 30.937 L 164.448 -163.648" fill="none" stroke="#547e70" stroke-width="2" marker-end="url(#arrow)"/><path d="M 229.928 30.937 L 189.475 -41.656" fill="none" stroke="#547e70" stroke-width="2" marker-end="url(#arrow)"/><path d="M 229.928 30.937 L 82.226 -175.712" fill="none" stroke="#547e70" stroke-width="2" marker-end="url(#tee)"/><path d="M 229.928 30.937 L 269.078 -22.293" fill="none" stroke="#547e70" stroke-width="2" marker-end="url(#tee)"/><path d="M 229.928 30.937 L -213.468 -165.322" fill="none" stroke="#547e70" stroke-width="2" marker-end="url(#tee)"/><path d="M 229.928 30.937 L 45.732 266.099" fill="none" stroke="#547e70" stroke-width="2" marker-end="url(#tee)"/><path d="M 269.078 -22.293 L -40.498 150.652" fill="none" stroke="#547e70" stroke-width="2" marker-end="url(#arrow)"/><path d="M 229.928 30.937 L -111.575 158.704" fill="none" stroke="#547e70" stroke-width="2" marker-end="url(#arrow)"/><path d="M -213.468 -165.322 L -40.498 150.652" fill="none" stroke="#547e70" stroke-width="2" marker-end="url(#arrow)"/><path d="M 45.732 266.099 L -40.498 150.652" fill="none" stroke="#547e70" stroke-width="2" marker-end="url(#arrow)"/><path d="M 269.078 -22.293 L 10.316 -117.548" fill="none" stroke="#547e70" stroke-width="2" stroke-dasharray="8 7"/><path d="M 269.078 -22.293 L -257.227 -82.062" fill="none" stroke="#547e70" stroke-width="2" stroke-dasharray="8 7"/><path d="M -71.901 -138.442 L 115.346 201.294" fill="none" stroke="#547e70" stroke-width="2" stroke-dasharray="8 7"/><path d="M -71.901 -138.442 L 71.796 93.645" fill="none" stroke="#547e70" stroke-width="2" stroke-dasharray="8 7"/><path d="M 189.475 -41.656 L -231.802 9.586" fill="none" stroke="#547e70" stroke-width="2" stroke-dasharray="8 7"/><path d="M -111.575 158.704 L 189.475 -41.656" fill="none" stroke="#547e70" stroke-width="2" stroke-dasharray="8 7"/><path d="M 229.928 30.937 L -111.575 158.704" fill="none" stroke="#547e70" stroke-width="2" marker-end="url(#arrow)"/><path d="M 229.928 30.937 L -24.931 -192.391" fill="none" stroke="#547e70" stroke-width="2" marker-end="url(#arrow)"/><path d="M 239.001 125.612 L 245.104 -113.244" fill="none" stroke="#547e70" stroke-width="2" marker-end="url(#arrow)"/><path d="M -261.082 68.820 L 245.104 -113.244" fill="none" stroke="#547e70" stroke-width="2" marker-end="url(#arrow)"/><path d="M -104.236 249.068 L 245.104 -113.244" fill="none" stroke="#547e70" stroke-width="2" marker-end="url(#arrow)"/><path d="M 229.928 30.937 L 269.078 -22.293" fill="none" stroke="#547e70" stroke-width="2" marker-end="url(#arrow)"/><g transform="translate(80.000 0.000)"><rect x="-28" y="-17" width="56" height="34" rx="9" fill="#14382b" stroke="#8be7aa" stroke-width="2"/><text y="35" fill="#dff9e8" font-family="Arial, sans-serif" font-size="11" text-anchor="middle">ATG101</text></g><g transform="translate(-87.010 79.708)"><rect x="-28" y="-17" width="56" height="34" rx="9" fill="#14382b" stroke="#8be7aa" stroke-width="2"/><text y="35" fill="#dff9e8" font-family="Arial, sans-serif" font-size="11" text-anchor="middle">ATG12</text></g><g transform="translate(10.316 -117.548)"><rect x="-28" y="-17" width="56" height="34" rx="9" fill="#14382b" stroke="#8be7aa" stroke-width="2"/><text y="35" fill="#dff9e8" font-family="Arial, sans-serif" font-size="11" text-anchor="middle">ATG13</text></g><g transform="translate(71.796 93.645)"><rect x="-28" y="-17" width="56" height="34" rx="9" fill="#14382b" stroke="#8be7aa" stroke-width="2"/><text y="35" fill="#dff9e8" font-family="Arial, sans-serif" font-size="11" text-anchor="middle">ATG14</text></g><g transform="translate(-153.615 -27.172)"><rect x="-28" y="-17" width="56" height="34" rx="9" fill="#14382b" stroke="#8be7aa" stroke-width="2"/><text y="35" fill="#dff9e8" font-family="Arial, sans-serif" font-size="11" text-anchor="middle">ATG5</text></g><g transform="translate(131.626 -83.730)"><rect x="-28" y="-17" width="56" height="34" rx="9" fill="#14382b" stroke="#8be7aa" stroke-width="2"/><text y="35" fill="#dff9e8" font-family="Arial, sans-serif" font-size="11" text-anchor="middle">ATG7</text></g><g transform="translate(-40.498 150.652)"><rect x="-28" y="-17" width="56" height="34" rx="9" fill="#14382b" stroke="#8be7aa" stroke-width="2"/><text y="35" fill="#dff9e8" font-family="Arial, sans-serif" font-size="11" text-anchor="middle">AUTOPHAGY</text></g><g transform="translate(-71.901 -138.442)"><rect x="-28" y="-17" width="56" height="34" rx="9" fill="#14382b" stroke="#8be7aa" stroke-width="2"/><text y="35" fill="#dff9e8" font-family="Arial, sans-serif" font-size="11" text-anchor="middle">BECN1</text></g><g transform="translate(146.534 53.514)"><rect x="-28" y="-17" width="56" height="34" rx="9" fill="#14382b" stroke="#8be7aa" stroke-width="2"/><text y="35" fill="#dff9e8" font-family="Arial, sans-serif" font-size="11" text-anchor="middle">DAP</text></g><g transform="translate(-179.323 74.022)"><rect x="-28" y="-17" width="56" height="34" rx="9" fill="#14382b" stroke="#8be7aa" stroke-width="2"/><text y="35" fill="#dff9e8" font-family="Arial, sans-serif" font-size="11" text-anchor="middle">EEF2</text></g><g transform="translate(82.226 -175.712)"><rect x="-28" y="-17" width="56" height="34" rx="9" fill="#14382b" stroke="#8be7aa" stroke-width="2"/><text y="35" fill="#dff9e8" font-family="Arial, sans-serif" font-size="11" text-anchor="middle">EEF2K</text></g><g transform="translate(58.061 185.108)"><rect x="-28" y="-17" width="56" height="34" rx="9" fill="#14382b" stroke="#8be7aa" stroke-width="2"/><text y="35" fill="#dff9e8" font-family="Arial, sans-serif" font-size="11" text-anchor="middle">EIF4A1</text></g><g transform="translate(-167.851 -97.273)"><rect x="-28" y="-17" width="56" height="34" rx="9" fill="#14382b" stroke="#8be7aa" stroke-width="2"/><text y="35" fill="#dff9e8" font-family="Arial, sans-serif" font-size="11" text-anchor="middle">EIF4B</text></g><g transform="translate(189.475 -41.656)"><rect x="-28" y="-17" width="56" height="34" rx="9" fill="#14382b" stroke="#8be7aa" stroke-width="2"/><text y="35" fill="#dff9e8" font-family="Arial, sans-serif" font-size="11" text-anchor="middle">EIF4E</text></g><g transform="translate(-111.575 158.704)"><rect x="-28" y="-17" width="56" height="34" rx="9" fill="#14382b" stroke="#8be7aa" stroke-width="2"/><text y="35" fill="#dff9e8" font-family="Arial, sans-serif" font-size="11" text-anchor="middle">EIF4EBP1</text></g><g transform="translate(-24.931 -192.391)"><rect x="-28" y="-17" width="56" height="34" rx="9" fill="#14382b" stroke="#8be7aa" stroke-width="2"/><text y="35" fill="#dff9e8" font-family="Arial, sans-serif" font-size="11" text-anchor="middle">EIF4EBP2</text></g><g transform="translate(177.399 149.512)"><rect x="-28" y="-17" width="56" height="34" rx="9" fill="#14382b" stroke="#8be7aa" stroke-width="2"/><text y="35" fill="#dff9e8" font-family="Arial, sans-serif" font-size="11" text-anchor="middle">EIF4EBP3</text></g><g transform="translate(-231.802 9.586)"><rect x="-28" y="-17" width="56" height="34" rx="9" fill="#14382b" stroke="#8be7aa" stroke-width="2"/><text y="35" fill="#dff9e8" font-family="Arial, sans-serif" font-size="11" text-anchor="middle">EIF4G1</text></g><g transform="translate(164.448 -163.648)"><rect x="-28" y="-17" width="56" height="34" rx="9" fill="#14382b" stroke="#8be7aa" stroke-width="2"/><text y="35" fill="#dff9e8" font-family="Arial, sans-serif" font-size="11" text-anchor="middle">LARP1</text></g><g transform="translate(-10.716 231.752)"><rect x="-28" y="-17" width="56" height="34" rx="9" fill="#14382b" stroke="#8be7aa" stroke-width="2"/><text y="35" fill="#dff9e8" font-family="Arial, sans-serif" font-size="11" text-anchor="middle">MAP1LC3B</text></g><g transform="translate(-148.645 -178.126)"><rect x="-28" y="-17" width="56" height="34" rx="9" fill="#14382b" stroke="#8be7aa" stroke-width="2"/><text y="35" fill="#dff9e8" font-family="Arial, sans-serif" font-size="11" text-anchor="middle">MITF</text></g><g transform="translate(229.928 30.937)"><rect x="-28" y="-17" width="56" height="34" rx="9" fill="#14382b" stroke="#8be7aa" stroke-width="2"/><text y="35" fill="#dff9e8" font-family="Arial, sans-serif" font-size="11" text-anchor="middle">MTORC1</text></g><g transform="translate(-190.439 132.503)"><rect x="-28" y="-17" width="56" height="34" rx="9" fill="#14382b" stroke="#8be7aa" stroke-width="2"/><text y="35" fill="#dff9e8" font-family="Arial, sans-serif" font-size="11" text-anchor="middle">NPC1</text></g><g transform="translate(50.920 -226.343)"><rect x="-28" y="-17" width="56" height="34" rx="9" fill="#14382b" stroke="#8be7aa" stroke-width="2"/><text y="35" fill="#dff9e8" font-family="Arial, sans-serif" font-size="11" text-anchor="middle">PDCD4</text></g><g transform="translate(115.346 201.294)"><rect x="-28" y="-17" width="56" height="34" rx="9" fill="#14382b" stroke="#8be7aa" stroke-width="2"/><text y="35" fill="#dff9e8" font-family="Arial, sans-serif" font-size="11" text-anchor="middle">PIK3C3</text></g><g transform="translate(-257.227 -82.062)"><rect x="-28" y="-17" width="56" height="34" rx="9" fill="#14382b" stroke="#8be7aa" stroke-width="2"/><text y="35" fill="#dff9e8" font-family="Arial, sans-serif" font-size="11" text-anchor="middle">RB1CC1</text></g><g transform="translate(245.104 -113.244)"><rect x="-28" y="-17" width="56" height="34" rx="9" fill="#14382b" stroke="#8be7aa" stroke-width="2"/><text y="35" fill="#dff9e8" font-family="Arial, sans-serif" font-size="11" text-anchor="middle">RPS6</text></g><g transform="translate(-104.236 249.068)"><rect x="-28" y="-17" width="56" height="34" rx="9" fill="#14382b" stroke="#8be7aa" stroke-width="2"/><text y="35" fill="#dff9e8" font-family="Arial, sans-serif" font-size="11" text-anchor="middle">RPS6KA1</text></g><g transform="translate(-91.382 -254.066)"><rect x="-28" y="-17" width="56" height="34" rx="9" fill="#14382b" stroke="#8be7aa" stroke-width="2"/><text y="35" fill="#dff9e8" font-family="Arial, sans-serif" font-size="11" text-anchor="middle">RPS6KA3</text></g><g transform="translate(239.001 125.612)"><rect x="-28" y="-17" width="56" height="34" rx="9" fill="#14382b" stroke="#8be7aa" stroke-width="2"/><text y="35" fill="#dff9e8" font-family="Arial, sans-serif" font-size="11" text-anchor="middle">RPS6KB1</text></g><g transform="translate(-261.082 68.820)"><rect x="-28" y="-17" width="56" height="34" rx="9" fill="#14382b" stroke="#8be7aa" stroke-width="2"/><text y="35" fill="#dff9e8" font-family="Arial, sans-serif" font-size="11" text-anchor="middle">RPS6KB2</text></g><g transform="translate(146.026 -227.104)"><rect x="-28" y="-17" width="56" height="34" rx="9" fill="#14382b" stroke="#8be7aa" stroke-width="2"/><text y="35" fill="#dff9e8" font-family="Arial, sans-serif" font-size="11" text-anchor="middle">SQSTM1</text></g><g transform="translate(45.732 266.099)"><rect x="-28" y="-17" width="56" height="34" rx="9" fill="#14382b" stroke="#8be7aa" stroke-width="2"/><text y="35" fill="#dff9e8" font-family="Arial, sans-serif" font-size="11" text-anchor="middle">TFE3</text></g><g transform="translate(-213.468 -165.322)"><rect x="-28" y="-17" width="56" height="34" rx="9" fill="#14382b" stroke="#8be7aa" stroke-width="2"/><text y="35" fill="#dff9e8" font-family="Arial, sans-serif" font-size="11" text-anchor="middle">TFEB</text></g><g transform="translate(269.078 -22.293)"><rect x="-28" y="-17" width="56" height="34" rx="9" fill="#14382b" stroke="#8be7aa" stroke-width="2"/><text y="35" fill="#dff9e8" font-family="Arial, sans-serif" font-size="11" text-anchor="middle">ULK1</text></g><g transform="translate(-183.351 198.198)"><rect x="-28" y="-17" width="56" height="34" rx="9" fill="#14382b" stroke="#8be7aa" stroke-width="2"/><text y="35" fill="#dff9e8" font-family="Arial, sans-serif" font-size="11" text-anchor="middle">ULK2</text></g><g transform="translate(1.503 -307.996)"><rect x="-28" y="-17" width="56" height="34" rx="9" fill="#14382b" stroke="#8be7aa" stroke-width="2"/><text y="35" fill="#dff9e8" font-family="Arial, sans-serif" font-size="11" text-anchor="middle">UVRAG</text></g><g transform="translate(206.941 228.122)"><rect x="-28" y="-17" width="56" height="34" rx="9" fill="#14382b" stroke="#8be7aa" stroke-width="2"/><text y="35" fill="#dff9e8" font-family="Arial, sans-serif" font-size="11" text-anchor="middle">WIPI2</text></g></svg>
